<mxfile host="app.diagrams.net" agent="Mozilla/5.0 (Windows NT 10.0; Win64; x64) AppleWebKit/537.36 (KHTML, like Gecko) Chrome/133.0.0.0 Safari/537.36" version="26.0.16">
  <diagram name="Page-1" id="DWiu8bJZ94A5XNGSTLAS">
    <mxGraphModel grid="1" page="1" gridSize="10" guides="1" tooltips="1" connect="1" arrows="1" fold="1" pageScale="1" pageWidth="850" pageHeight="1100" math="0" shadow="0">
      <root>
        <mxCell id="0" />
        <mxCell id="1" parent="0" />
        <mxCell id="sOUCYgoyjU9WOzZ4OD1j-5" value="" style="whiteSpace=wrap;html=1;rounded=1;fillColor=#f5f5f5;strokeColor=#000000;fontColor=#333333;strokeWidth=4;" vertex="1" parent="1">
          <mxGeometry x="225" y="150" width="1330" height="2560" as="geometry" />
        </mxCell>
        <mxCell id="q38-xUWY-D5EYrUV_V0L-2" value="Complete Office Hours" style="ellipse;whiteSpace=wrap;html=1;" vertex="1" parent="1">
          <mxGeometry x="675" y="425" width="85" height="40" as="geometry" />
        </mxCell>
        <mxCell id="q38-xUWY-D5EYrUV_V0L-3" value="Exam Scheduling" style="ellipse;whiteSpace=wrap;html=1;" vertex="1" parent="1">
          <mxGeometry x="1245" y="445" width="140" height="60" as="geometry" />
        </mxCell>
        <mxCell id="UQc-vg5HXmAlZ1WJ9ItE-1" style="edgeStyle=orthogonalEdgeStyle;rounded=0;orthogonalLoop=1;jettySize=auto;html=1;endArrow=none;endFill=0;startFill=0;exitX=0.5;exitY=0.5;exitDx=0;exitDy=0;exitPerimeter=0;" edge="1" parent="1" source="q38-xUWY-D5EYrUV_V0L-4">
          <mxGeometry relative="1" as="geometry">
            <mxPoint x="30" y="2220" as="targetPoint" />
            <mxPoint x="1595" y="600" as="sourcePoint" />
            <Array as="points">
              <mxPoint x="1655" y="600" />
              <mxPoint x="1730" y="600" />
              <mxPoint x="1730" y="2780" />
              <mxPoint x="30" y="2780" />
            </Array>
          </mxGeometry>
        </mxCell>
        <mxCell id="q38-xUWY-D5EYrUV_V0L-4" value="Dean" style="shape=umlActor;verticalLabelPosition=bottom;verticalAlign=top;html=1;" vertex="1" parent="1">
          <mxGeometry x="1640" y="565" width="30" height="60" as="geometry" />
        </mxCell>
        <mxCell id="q38-xUWY-D5EYrUV_V0L-5" value="Faculty Member" style="shape=umlActor;verticalLabelPosition=bottom;verticalAlign=top;html=1;" vertex="1" parent="1">
          <mxGeometry x="40" y="920" width="30" height="60" as="geometry" />
        </mxCell>
        <mxCell id="q38-xUWY-D5EYrUV_V0L-6" value="Teaching Assistant&lt;div&gt;(TA)&lt;/div&gt;" style="shape=umlActor;verticalLabelPosition=bottom;verticalAlign=top;html=1;" vertex="1" parent="1">
          <mxGeometry x="50" y="385" width="30" height="60" as="geometry" />
        </mxCell>
        <mxCell id="UQc-vg5HXmAlZ1WJ9ItE-18" style="edgeStyle=orthogonalEdgeStyle;rounded=0;orthogonalLoop=1;jettySize=auto;html=1;dashed=1;endArrow=open;startFill=0;exitX=0.5;exitY=0;exitDx=0;exitDy=0;endFill=0;" edge="1" parent="1" source="q38-xUWY-D5EYrUV_V0L-24">
          <mxGeometry relative="1" as="geometry">
            <mxPoint x="940" y="420" as="targetPoint" />
            <Array as="points">
              <mxPoint x="941" y="310" />
              <mxPoint x="941" y="420" />
            </Array>
            <mxPoint x="820" y="280" as="sourcePoint" />
          </mxGeometry>
        </mxCell>
        <mxCell id="q38-xUWY-D5EYrUV_V0L-24" value="Complete Grading Task" style="ellipse;whiteSpace=wrap;html=1;" vertex="1" parent="1">
          <mxGeometry x="675" y="310" width="80" height="40" as="geometry" />
        </mxCell>
        <mxCell id="UQc-vg5HXmAlZ1WJ9ItE-17" style="edgeStyle=orthogonalEdgeStyle;rounded=0;orthogonalLoop=1;jettySize=auto;html=1;dashed=1;endArrow=none;startFill=0;" edge="1" parent="1" source="O_LezalZv0AIztacFEFi-72">
          <mxGeometry relative="1" as="geometry">
            <mxPoint x="940" y="470" as="targetPoint" />
            <Array as="points">
              <mxPoint x="890" y="420" />
              <mxPoint x="940" y="420" />
            </Array>
          </mxGeometry>
        </mxCell>
        <mxCell id="q38-xUWY-D5EYrUV_V0L-25" value="Complete Recitation" style="ellipse;whiteSpace=wrap;html=1;" vertex="1" parent="1">
          <mxGeometry x="675" y="370" width="80" height="40" as="geometry" />
        </mxCell>
        <mxCell id="UQc-vg5HXmAlZ1WJ9ItE-19" style="edgeStyle=orthogonalEdgeStyle;rounded=0;orthogonalLoop=1;jettySize=auto;html=1;endArrow=none;startFill=0;dashed=1;" edge="1" parent="1" source="q38-xUWY-D5EYrUV_V0L-26">
          <mxGeometry relative="1" as="geometry">
            <mxPoint x="940" y="330" as="targetPoint" />
            <Array as="points">
              <mxPoint x="941" y="250" />
              <mxPoint x="941" y="330" />
            </Array>
          </mxGeometry>
        </mxCell>
        <mxCell id="q38-xUWY-D5EYrUV_V0L-26" value="Complete Lab Works" style="ellipse;whiteSpace=wrap;html=1;" vertex="1" parent="1">
          <mxGeometry x="671.5" y="240" width="85" height="50" as="geometry" />
        </mxCell>
        <mxCell id="UQc-vg5HXmAlZ1WJ9ItE-14" style="edgeStyle=orthogonalEdgeStyle;rounded=0;orthogonalLoop=1;jettySize=auto;html=1;dashed=1;endArrow=open;startFill=0;endFill=0;entryX=0.645;entryY=0;entryDx=0;entryDy=0;entryPerimeter=0;" edge="1" parent="1" source="q38-xUWY-D5EYrUV_V0L-32" target="k6JBA33vA88njy-TTC3Q-13">
          <mxGeometry relative="1" as="geometry">
            <mxPoint x="939" y="1439" as="targetPoint" />
            <Array as="points">
              <mxPoint x="714" y="520" />
              <mxPoint x="939" y="520" />
              <mxPoint x="939" y="1440" />
            </Array>
          </mxGeometry>
        </mxCell>
        <mxCell id="q38-xUWY-D5EYrUV_V0L-32" value="Exam Proctoring" style="ellipse;whiteSpace=wrap;html=1;" vertex="1" parent="1">
          <mxGeometry x="675" y="480" width="90" height="30" as="geometry" />
        </mxCell>
        <mxCell id="O_LezalZv0AIztacFEFi-6" value="" style="endArrow=none;html=1;rounded=0;entryX=1;entryY=0.5;entryDx=0;entryDy=0;exitX=0.5;exitY=0.5;exitDx=0;exitDy=0;exitPerimeter=0;" edge="1" parent="1" source="q38-xUWY-D5EYrUV_V0L-4" target="q38-xUWY-D5EYrUV_V0L-3">
          <mxGeometry width="50" height="50" relative="1" as="geometry">
            <mxPoint x="1640" y="510" as="sourcePoint" />
            <mxPoint x="1405" y="474.37000000000006" as="targetPoint" />
          </mxGeometry>
        </mxCell>
        <mxCell id="q38-xUWY-D5EYrUV_V0L-34" value="" style="endArrow=none;html=1;rounded=0;exitX=0;exitY=0.5;exitDx=0;exitDy=0;entryX=0.5;entryY=0.5;entryDx=0;entryDy=0;entryPerimeter=0;" edge="1" parent="1" source="q38-xUWY-D5EYrUV_V0L-36" target="q38-xUWY-D5EYrUV_V0L-6">
          <mxGeometry width="50" height="50" relative="1" as="geometry">
            <mxPoint x="390" y="300" as="sourcePoint" />
            <mxPoint x="440" y="250" as="targetPoint" />
          </mxGeometry>
        </mxCell>
        <mxCell id="q38-xUWY-D5EYrUV_V0L-36" value="Assisting Courses&lt;div&gt;And/Or Workload&lt;/div&gt;" style="ellipse;whiteSpace=wrap;html=1;" vertex="1" parent="1">
          <mxGeometry x="330" y="240" width="145" height="50" as="geometry" />
        </mxCell>
        <mxCell id="O_LezalZv0AIztacFEFi-7" value="" style="endArrow=none;html=1;rounded=0;exitX=0.5;exitY=0.5;exitDx=0;exitDy=0;exitPerimeter=0;entryX=1;entryY=0.5;entryDx=0;entryDy=0;" edge="1" parent="1" source="q38-xUWY-D5EYrUV_V0L-4" target="O_LezalZv0AIztacFEFi-8">
          <mxGeometry width="50" height="50" relative="1" as="geometry">
            <mxPoint x="1110" y="485" as="sourcePoint" />
            <mxPoint x="1280" y="555" as="targetPoint" />
          </mxGeometry>
        </mxCell>
        <mxCell id="O_LezalZv0AIztacFEFi-8" value="Determing Department Pool" style="ellipse;whiteSpace=wrap;html=1;" vertex="1" parent="1">
          <mxGeometry x="1257.5" y="620" width="120" height="65" as="geometry" />
        </mxCell>
        <mxCell id="k6JBA33vA88njy-TTC3Q-3" value="Select Assignment Type" style="ellipse;whiteSpace=wrap;html=1;" vertex="1" parent="1">
          <mxGeometry x="306.25" y="810" width="145" height="50" as="geometry" />
        </mxCell>
        <mxCell id="k6JBA33vA88njy-TTC3Q-4" value="Randomly" style="ellipse;whiteSpace=wrap;html=1;" vertex="1" parent="1">
          <mxGeometry x="578.75" y="900" width="115" height="40" as="geometry" />
        </mxCell>
        <mxCell id="O_LezalZv0AIztacFEFi-9" value="" style="endArrow=none;html=1;rounded=0;exitX=0.5;exitY=0.5;exitDx=0;exitDy=0;exitPerimeter=0;entryX=1;entryY=0.5;entryDx=0;entryDy=0;" edge="1" parent="1" source="q38-xUWY-D5EYrUV_V0L-4" target="O_LezalZv0AIztacFEFi-11">
          <mxGeometry width="50" height="50" relative="1" as="geometry">
            <mxPoint x="1110" y="470" as="sourcePoint" />
            <mxPoint x="1260" y="390" as="targetPoint" />
          </mxGeometry>
        </mxCell>
        <mxCell id="9XOKiGZ0hlWDvyM98krq-6" style="edgeStyle=orthogonalEdgeStyle;rounded=0;orthogonalLoop=1;jettySize=auto;html=1;endArrow=none;startFill=0;dashed=1;" edge="1" parent="1" source="q38-xUWY-D5EYrUV_V0L-40">
          <mxGeometry relative="1" as="geometry">
            <mxPoint x="940" y="560" as="targetPoint" />
          </mxGeometry>
        </mxCell>
        <mxCell id="q38-xUWY-D5EYrUV_V0L-40" value="Reporting Total Workload" style="ellipse;whiteSpace=wrap;html=1;" vertex="1" parent="1">
          <mxGeometry x="330" y="535" width="145" height="50" as="geometry" />
        </mxCell>
        <mxCell id="O_LezalZv0AIztacFEFi-11" value="Managing Course Data" style="ellipse;whiteSpace=wrap;html=1;" vertex="1" parent="1">
          <mxGeometry x="1250" y="350" width="135" height="60" as="geometry" />
        </mxCell>
        <mxCell id="k6JBA33vA88njy-TTC3Q-6" value="Print Student Distribution" style="ellipse;whiteSpace=wrap;html=1;" vertex="1" parent="1">
          <mxGeometry x="310" y="910" width="112.5" height="50" as="geometry" />
        </mxCell>
        <mxCell id="k6JBA33vA88njy-TTC3Q-11" value="Bilkent SMTP Server" style="shape=umlActor;verticalLabelPosition=bottom;verticalAlign=top;html=1;" vertex="1" parent="1">
          <mxGeometry x="1630" y="1420" width="30" height="60" as="geometry" />
        </mxCell>
        <mxCell id="k6JBA33vA88njy-TTC3Q-13" value="Send Notification" style="ellipse;whiteSpace=wrap;html=1;" vertex="1" parent="1">
          <mxGeometry x="840" y="1440" width="155" height="50" as="geometry" />
        </mxCell>
        <mxCell id="q38-xUWY-D5EYrUV_V0L-41" value="" style="endArrow=none;html=1;rounded=0;exitX=0;exitY=0.5;exitDx=0;exitDy=0;entryX=0.5;entryY=0.5;entryDx=0;entryDy=0;entryPerimeter=0;" edge="1" parent="1" source="q38-xUWY-D5EYrUV_V0L-40" target="q38-xUWY-D5EYrUV_V0L-6">
          <mxGeometry width="50" height="50" relative="1" as="geometry">
            <mxPoint x="280" y="150" as="sourcePoint" />
            <mxPoint x="125" y="150" as="targetPoint" />
          </mxGeometry>
        </mxCell>
        <mxCell id="k6JBA33vA88njy-TTC3Q-14" value="" style="endArrow=none;html=1;rounded=0;exitX=0.472;exitY=0.709;exitDx=0;exitDy=0;entryX=1;entryY=0.5;entryDx=0;entryDy=0;exitPerimeter=0;" edge="1" parent="1" source="k6JBA33vA88njy-TTC3Q-11" target="k6JBA33vA88njy-TTC3Q-13">
          <mxGeometry width="50" height="50" relative="1" as="geometry">
            <mxPoint x="1645" y="164.65999999999997" as="sourcePoint" />
            <mxPoint x="1490" y="164.65999999999997" as="targetPoint" />
          </mxGeometry>
        </mxCell>
        <mxCell id="k6JBA33vA88njy-TTC3Q-23" value="Automatic Assign" style="ellipse;whiteSpace=wrap;html=1;" vertex="1" parent="1">
          <mxGeometry x="592.5" y="785" width="102.5" height="40" as="geometry" />
        </mxCell>
        <mxCell id="k6JBA33vA88njy-TTC3Q-24" value="Manual Assign" style="ellipse;whiteSpace=wrap;html=1;" vertex="1" parent="1">
          <mxGeometry x="595" y="850" width="100" height="40" as="geometry" />
        </mxCell>
        <mxCell id="O_LezalZv0AIztacFEFi-27" value="Update Application" style="ellipse;whiteSpace=wrap;html=1;" vertex="1" parent="1">
          <mxGeometry x="1340" y="1105" width="135" height="60" as="geometry" />
        </mxCell>
        <mxCell id="O_LezalZv0AIztacFEFi-28" value="Admin" style="shape=umlActor;verticalLabelPosition=bottom;verticalAlign=top;html=1;" vertex="1" parent="1">
          <mxGeometry x="1630" y="860" width="30" height="60" as="geometry" />
        </mxCell>
        <mxCell id="O_LezalZv0AIztacFEFi-29" value="" style="endArrow=none;html=1;rounded=0;exitX=0.5;exitY=0.5;exitDx=0;exitDy=0;exitPerimeter=0;entryX=1;entryY=0.5;entryDx=0;entryDy=0;" edge="1" parent="1" source="O_LezalZv0AIztacFEFi-28" target="O_LezalZv0AIztacFEFi-27">
          <mxGeometry width="50" height="50" relative="1" as="geometry">
            <mxPoint x="1125" y="887.5" as="sourcePoint" />
            <mxPoint x="1270" y="892.5" as="targetPoint" />
          </mxGeometry>
        </mxCell>
        <mxCell id="O_LezalZv0AIztacFEFi-32" value="" style="endArrow=none;html=1;rounded=0;exitX=0.5;exitY=0.5;exitDx=0;exitDy=0;exitPerimeter=0;entryX=1;entryY=0.5;entryDx=0;entryDy=0;" edge="1" parent="1" source="O_LezalZv0AIztacFEFi-28" target="O_LezalZv0AIztacFEFi-33">
          <mxGeometry width="50" height="50" relative="1" as="geometry">
            <mxPoint x="1115" y="885" as="sourcePoint" />
            <mxPoint x="1265" y="805" as="targetPoint" />
          </mxGeometry>
        </mxCell>
        <mxCell id="9XOKiGZ0hlWDvyM98krq-11" style="edgeStyle=orthogonalEdgeStyle;rounded=0;orthogonalLoop=1;jettySize=auto;html=1;endArrow=none;startFill=0;dashed=1;" edge="1" parent="1" source="O_LezalZv0AIztacFEFi-33">
          <mxGeometry relative="1" as="geometry">
            <mxPoint x="940" y="1210" as="targetPoint" />
          </mxGeometry>
        </mxCell>
        <mxCell id="O_LezalZv0AIztacFEFi-33" value="Authorize Actors" style="ellipse;whiteSpace=wrap;html=1;" vertex="1" parent="1">
          <mxGeometry x="1340" y="1175" width="120" height="70" as="geometry" />
        </mxCell>
        <mxCell id="q38-xUWY-D5EYrUV_V0L-51" value="" style="endArrow=open;html=1;rounded=0;entryX=0;entryY=0.5;entryDx=0;entryDy=0;exitX=0.97;exitY=0.264;exitDx=0;exitDy=0;dashed=1;endFill=0;exitPerimeter=0;" edge="1" parent="1" source="k6JBA33vA88njy-TTC3Q-6" target="k6JBA33vA88njy-TTC3Q-4">
          <mxGeometry relative="1" as="geometry">
            <mxPoint x="512.5" y="1065" as="sourcePoint" />
            <mxPoint x="573.5" y="1023" as="targetPoint" />
            <Array as="points" />
          </mxGeometry>
        </mxCell>
        <mxCell id="q38-xUWY-D5EYrUV_V0L-52" value="&amp;lt;&amp;lt;includes&amp;gt;&amp;gt;" style="edgeLabel;html=1;align=center;verticalAlign=middle;resizable=0;points=[];" connectable="0" vertex="1" parent="q38-xUWY-D5EYrUV_V0L-51">
          <mxGeometry x="-0.02" relative="1" as="geometry">
            <mxPoint as="offset" />
          </mxGeometry>
        </mxCell>
        <mxCell id="O_LezalZv0AIztacFEFi-37" value="TA&amp;nbsp;&lt;span style=&quot;background-color: transparent; color: light-dark(rgb(0, 0, 0), rgb(255, 255, 255));&quot;&gt;-Leave Request&lt;/span&gt;" style="ellipse;whiteSpace=wrap;html=1;" vertex="1" parent="1">
          <mxGeometry x="360" y="1625" width="150" height="50" as="geometry" />
        </mxCell>
        <mxCell id="k6JBA33vA88njy-TTC3Q-28" value="" style="endArrow=none;html=1;rounded=0;exitX=0;exitY=0.5;exitDx=0;exitDy=0;entryX=0.5;entryY=0.5;entryDx=0;entryDy=0;entryPerimeter=0;" edge="1" parent="1" source="k6JBA33vA88njy-TTC3Q-3" target="q38-xUWY-D5EYrUV_V0L-5">
          <mxGeometry width="50" height="50" relative="1" as="geometry">
            <mxPoint x="255" y="825" as="sourcePoint" />
            <mxPoint x="124" y="895" as="targetPoint" />
          </mxGeometry>
        </mxCell>
        <mxCell id="k6JBA33vA88njy-TTC3Q-29" value="" style="endArrow=none;html=1;rounded=0;exitX=0;exitY=0.5;exitDx=0;exitDy=0;entryX=0.5;entryY=0.5;entryDx=0;entryDy=0;entryPerimeter=0;" edge="1" parent="1" source="k6JBA33vA88njy-TTC3Q-6" target="q38-xUWY-D5EYrUV_V0L-5">
          <mxGeometry width="50" height="50" relative="1" as="geometry">
            <mxPoint x="250" y="915" as="sourcePoint" />
            <mxPoint x="125" y="890" as="targetPoint" />
          </mxGeometry>
        </mxCell>
        <mxCell id="9XOKiGZ0hlWDvyM98krq-28" style="edgeStyle=orthogonalEdgeStyle;rounded=0;orthogonalLoop=1;jettySize=auto;html=1;endArrow=none;startFill=0;dashed=1;" edge="1" parent="1" source="k6JBA33vA88njy-TTC3Q-32">
          <mxGeometry relative="1" as="geometry">
            <mxPoint x="890" y="1555" as="targetPoint" />
            <Array as="points">
              <mxPoint x="840" y="1555" />
            </Array>
          </mxGeometry>
        </mxCell>
        <mxCell id="k6JBA33vA88njy-TTC3Q-32" value="TA -Replacement" style="ellipse;whiteSpace=wrap;html=1;" vertex="1" parent="1">
          <mxGeometry x="360" y="1530" width="150" height="50" as="geometry" />
        </mxCell>
        <mxCell id="q38-xUWY-D5EYrUV_V0L-64" value="View Past Tasks and Workloads" style="ellipse;whiteSpace=wrap;html=1;" vertex="1" parent="1">
          <mxGeometry x="330" y="420" width="145" height="50" as="geometry" />
        </mxCell>
        <mxCell id="q38-xUWY-D5EYrUV_V0L-65" value="Proctor Swapping" style="ellipse;whiteSpace=wrap;html=1;" vertex="1" parent="1">
          <mxGeometry x="322.5" y="640" width="145" height="50" as="geometry" />
        </mxCell>
        <mxCell id="UQc-vg5HXmAlZ1WJ9ItE-11" style="edgeStyle=orthogonalEdgeStyle;rounded=0;orthogonalLoop=1;jettySize=auto;html=1;dashed=1;endArrow=open;startFill=0;endFill=0;" edge="1" parent="1" source="q38-xUWY-D5EYrUV_V0L-66">
          <mxGeometry relative="1" as="geometry">
            <Array as="points">
              <mxPoint x="860" y="615" />
              <mxPoint x="860" y="1447" />
              <mxPoint x="860" y="1447" />
            </Array>
            <mxPoint x="860" y="1450" as="targetPoint" />
          </mxGeometry>
        </mxCell>
        <mxCell id="q38-xUWY-D5EYrUV_V0L-66" value="Accept/Reject Swapping Requests" style="ellipse;whiteSpace=wrap;html=1;" vertex="1" parent="1">
          <mxGeometry x="567.56" y="590" width="145" height="50" as="geometry" />
        </mxCell>
        <mxCell id="9XOKiGZ0hlWDvyM98krq-5" style="edgeStyle=orthogonalEdgeStyle;rounded=0;orthogonalLoop=1;jettySize=auto;html=1;endArrow=none;startFill=0;dashed=1;" edge="1" parent="1" source="q38-xUWY-D5EYrUV_V0L-67">
          <mxGeometry relative="1" as="geometry">
            <mxPoint x="860" y="710" as="targetPoint" />
          </mxGeometry>
        </mxCell>
        <mxCell id="q38-xUWY-D5EYrUV_V0L-67" value="Submit Swap Request" style="ellipse;whiteSpace=wrap;html=1;" vertex="1" parent="1">
          <mxGeometry x="570" y="685" width="145" height="50" as="geometry" />
        </mxCell>
        <mxCell id="aVH8XVsafTI9C4mX_rZn-7" value="" style="endArrow=open;html=1;rounded=0;exitX=0.5;exitY=1;exitDx=0;exitDy=0;entryX=1;entryY=0.611;entryDx=0;entryDy=0;entryPerimeter=0;dashed=1;endFill=0;" edge="1" parent="1" source="O_LezalZv0AIztacFEFi-72" target="q38-xUWY-D5EYrUV_V0L-32">
          <mxGeometry relative="1" as="geometry">
            <mxPoint x="772" y="494" as="sourcePoint" />
            <mxPoint x="895" y="380" as="targetPoint" />
            <Array as="points">
              <mxPoint x="890" y="500" />
              <mxPoint x="850" y="500" />
            </Array>
          </mxGeometry>
        </mxCell>
        <mxCell id="aVH8XVsafTI9C4mX_rZn-8" value="&amp;lt;&amp;lt;extends&amp;gt;&amp;gt;" style="edgeLabel;html=1;align=center;verticalAlign=middle;resizable=0;points=[];" connectable="0" vertex="1" parent="aVH8XVsafTI9C4mX_rZn-7">
          <mxGeometry x="-0.02" relative="1" as="geometry">
            <mxPoint x="-41" y="-8" as="offset" />
          </mxGeometry>
        </mxCell>
        <mxCell id="O_LezalZv0AIztacFEFi-52" value="" style="endArrow=none;html=1;rounded=0;entryX=1;entryY=0.5;entryDx=0;entryDy=0;" edge="1" parent="1" target="O_LezalZv0AIztacFEFi-53">
          <mxGeometry width="50" height="50" relative="1" as="geometry">
            <mxPoint x="1655" y="595" as="sourcePoint" />
            <mxPoint x="1380" y="620" as="targetPoint" />
          </mxGeometry>
        </mxCell>
        <mxCell id="q38-xUWY-D5EYrUV_V0L-70" value="" style="endArrow=none;html=1;rounded=0;exitX=0;exitY=0.5;exitDx=0;exitDy=0;entryX=0.5;entryY=0.5;entryDx=0;entryDy=0;entryPerimeter=0;" edge="1" parent="1" source="q38-xUWY-D5EYrUV_V0L-64" target="q38-xUWY-D5EYrUV_V0L-6">
          <mxGeometry width="50" height="50" relative="1" as="geometry">
            <mxPoint x="275" y="295" as="sourcePoint" />
            <mxPoint x="120" y="200" as="targetPoint" />
          </mxGeometry>
        </mxCell>
        <mxCell id="O_LezalZv0AIztacFEFi-53" value="Assign Proctoring Duties" style="ellipse;whiteSpace=wrap;html=1;" vertex="1" parent="1">
          <mxGeometry x="1250" y="530" width="130" height="60" as="geometry" />
        </mxCell>
        <mxCell id="q38-xUWY-D5EYrUV_V0L-71" value="" style="endArrow=none;html=1;rounded=0;exitX=0;exitY=0.5;exitDx=0;exitDy=0;entryX=0.5;entryY=0.5;entryDx=0;entryDy=0;entryPerimeter=0;" edge="1" parent="1" source="q38-xUWY-D5EYrUV_V0L-65" target="q38-xUWY-D5EYrUV_V0L-6">
          <mxGeometry width="50" height="50" relative="1" as="geometry">
            <mxPoint x="290" y="255" as="sourcePoint" />
            <mxPoint x="135" y="160" as="targetPoint" />
          </mxGeometry>
        </mxCell>
        <mxCell id="9XOKiGZ0hlWDvyM98krq-1" style="edgeStyle=orthogonalEdgeStyle;rounded=0;orthogonalLoop=1;jettySize=auto;html=1;dashed=1;endArrow=none;startFill=0;" edge="1" parent="1" source="aVH8XVsafTI9C4mX_rZn-13">
          <mxGeometry relative="1" as="geometry">
            <mxPoint x="940" y="560" as="targetPoint" />
            <Array as="points">
              <mxPoint x="501" y="360" />
              <mxPoint x="501" y="540" />
              <mxPoint x="940" y="540" />
            </Array>
          </mxGeometry>
        </mxCell>
        <mxCell id="aVH8XVsafTI9C4mX_rZn-13" value="Submit a Leave Request" style="ellipse;whiteSpace=wrap;html=1;" vertex="1" parent="1">
          <mxGeometry x="330" y="335" width="140" height="50" as="geometry" />
        </mxCell>
        <mxCell id="O_LezalZv0AIztacFEFi-58" style="edgeStyle=orthogonalEdgeStyle;rounded=0;orthogonalLoop=1;jettySize=auto;html=1;exitX=0.5;exitY=1;exitDx=0;exitDy=0;" edge="1" parent="1" source="O_LezalZv0AIztacFEFi-37" target="O_LezalZv0AIztacFEFi-37">
          <mxGeometry relative="1" as="geometry" />
        </mxCell>
        <mxCell id="O_LezalZv0AIztacFEFi-60" value="" style="endArrow=open;html=1;rounded=0;entryX=0;entryY=0.5;entryDx=0;entryDy=0;dashed=1;endFill=0;exitX=0.951;exitY=0.307;exitDx=0;exitDy=0;exitPerimeter=0;" edge="1" parent="1" source="q38-xUWY-D5EYrUV_V0L-36" target="q38-xUWY-D5EYrUV_V0L-26">
          <mxGeometry relative="1" as="geometry">
            <mxPoint x="470" y="250" as="sourcePoint" />
            <mxPoint x="618.64" y="38.75" as="targetPoint" />
            <Array as="points" />
          </mxGeometry>
        </mxCell>
        <mxCell id="O_LezalZv0AIztacFEFi-61" value="&amp;lt;&amp;lt;includes&amp;gt;&amp;gt;" style="edgeLabel;html=1;align=center;verticalAlign=middle;resizable=0;points=[];" connectable="0" vertex="1" parent="O_LezalZv0AIztacFEFi-60">
          <mxGeometry x="-0.02" relative="1" as="geometry">
            <mxPoint as="offset" />
          </mxGeometry>
        </mxCell>
        <mxCell id="O_LezalZv0AIztacFEFi-62" value="" style="endArrow=open;html=1;rounded=0;entryX=0;entryY=0.625;entryDx=0;entryDy=0;exitX=1;exitY=0.5;exitDx=0;exitDy=0;entryPerimeter=0;dashed=1;endFill=0;" edge="1" parent="1" source="q38-xUWY-D5EYrUV_V0L-36" target="q38-xUWY-D5EYrUV_V0L-24">
          <mxGeometry relative="1" as="geometry">
            <mxPoint x="390.0000000000001" y="125" as="sourcePoint" />
            <mxPoint x="628.64" y="48.75" as="targetPoint" />
            <Array as="points" />
          </mxGeometry>
        </mxCell>
        <mxCell id="O_LezalZv0AIztacFEFi-63" value="&amp;lt;&amp;lt;includes&amp;gt;&amp;gt;" style="edgeLabel;html=1;align=center;verticalAlign=middle;resizable=0;points=[];" connectable="0" vertex="1" parent="O_LezalZv0AIztacFEFi-62">
          <mxGeometry x="-0.02" relative="1" as="geometry">
            <mxPoint as="offset" />
          </mxGeometry>
        </mxCell>
        <mxCell id="O_LezalZv0AIztacFEFi-64" value="" style="endArrow=open;html=1;rounded=0;exitX=0.974;exitY=0.715;exitDx=0;exitDy=0;dashed=1;endFill=0;exitPerimeter=0;" edge="1" parent="1" source="q38-xUWY-D5EYrUV_V0L-36" target="q38-xUWY-D5EYrUV_V0L-25">
          <mxGeometry relative="1" as="geometry">
            <mxPoint x="400.0000000000001" y="135" as="sourcePoint" />
            <mxPoint x="638.64" y="58.75" as="targetPoint" />
            <Array as="points" />
          </mxGeometry>
        </mxCell>
        <mxCell id="O_LezalZv0AIztacFEFi-65" value="&amp;lt;&amp;lt;includes&amp;gt;&amp;gt;" style="edgeLabel;html=1;align=center;verticalAlign=middle;resizable=0;points=[];" connectable="0" vertex="1" parent="O_LezalZv0AIztacFEFi-64">
          <mxGeometry x="-0.02" relative="1" as="geometry">
            <mxPoint as="offset" />
          </mxGeometry>
        </mxCell>
        <mxCell id="O_LezalZv0AIztacFEFi-66" value="" style="endArrow=open;html=1;rounded=0;exitX=1;exitY=1;exitDx=0;exitDy=0;entryX=-0.012;entryY=0.396;entryDx=0;entryDy=0;entryPerimeter=0;dashed=1;endFill=0;" edge="1" parent="1" source="q38-xUWY-D5EYrUV_V0L-36" target="q38-xUWY-D5EYrUV_V0L-2">
          <mxGeometry relative="1" as="geometry">
            <mxPoint x="425" y="150" as="sourcePoint" />
            <mxPoint x="630" y="158" as="targetPoint" />
            <Array as="points" />
          </mxGeometry>
        </mxCell>
        <mxCell id="O_LezalZv0AIztacFEFi-67" value="&amp;lt;&amp;lt;includes&amp;gt;&amp;gt;" style="edgeLabel;html=1;align=center;verticalAlign=middle;resizable=0;points=[];" connectable="0" vertex="1" parent="O_LezalZv0AIztacFEFi-66">
          <mxGeometry x="-0.02" relative="1" as="geometry">
            <mxPoint as="offset" />
          </mxGeometry>
        </mxCell>
        <mxCell id="O_LezalZv0AIztacFEFi-68" value="" style="endArrow=open;html=1;rounded=0;exitX=0.743;exitY=0.939;exitDx=0;exitDy=0;exitPerimeter=0;entryX=0;entryY=0.4;entryDx=0;entryDy=0;entryPerimeter=0;dashed=1;endFill=0;" edge="1" parent="1" source="q38-xUWY-D5EYrUV_V0L-36" target="q38-xUWY-D5EYrUV_V0L-32">
          <mxGeometry relative="1" as="geometry">
            <mxPoint x="365" y="210" as="sourcePoint" />
            <mxPoint x="570" y="218" as="targetPoint" />
            <Array as="points" />
          </mxGeometry>
        </mxCell>
        <mxCell id="O_LezalZv0AIztacFEFi-69" value="&amp;lt;&amp;lt;includes&amp;gt;&amp;gt;" style="edgeLabel;html=1;align=center;verticalAlign=middle;resizable=0;points=[];" connectable="0" vertex="1" parent="O_LezalZv0AIztacFEFi-68">
          <mxGeometry x="-0.02" relative="1" as="geometry">
            <mxPoint as="offset" />
          </mxGeometry>
        </mxCell>
        <mxCell id="O_LezalZv0AIztacFEFi-73" value="" style="endArrow=open;html=1;rounded=0;entryX=0.915;entryY=0.792;entryDx=0;entryDy=0;dashed=1;endFill=0;entryPerimeter=0;" edge="1" parent="1" source="O_LezalZv0AIztacFEFi-72" target="q38-xUWY-D5EYrUV_V0L-26">
          <mxGeometry relative="1" as="geometry">
            <mxPoint x="805" y="242" as="sourcePoint" />
            <mxPoint x="805" y="300" as="targetPoint" />
            <Array as="points">
              <mxPoint x="890" y="280" />
            </Array>
          </mxGeometry>
        </mxCell>
        <mxCell id="O_LezalZv0AIztacFEFi-74" value="&amp;lt;&amp;lt;extends&amp;gt;&amp;gt;" style="edgeLabel;html=1;align=center;verticalAlign=middle;resizable=0;points=[];" connectable="0" vertex="1" parent="O_LezalZv0AIztacFEFi-73">
          <mxGeometry x="-0.02" relative="1" as="geometry">
            <mxPoint x="-27" as="offset" />
          </mxGeometry>
        </mxCell>
        <mxCell id="O_LezalZv0AIztacFEFi-75" value="" style="endArrow=open;html=1;rounded=0;exitX=0.037;exitY=0.279;exitDx=0;exitDy=0;entryX=1;entryY=0.5;entryDx=0;entryDy=0;dashed=1;endFill=0;exitPerimeter=0;" edge="1" parent="1" source="O_LezalZv0AIztacFEFi-72" target="q38-xUWY-D5EYrUV_V0L-24">
          <mxGeometry relative="1" as="geometry">
            <mxPoint x="787.5" y="316" as="sourcePoint" />
            <mxPoint x="787.5" y="374" as="targetPoint" />
            <Array as="points">
              <mxPoint x="780" y="340" />
            </Array>
          </mxGeometry>
        </mxCell>
        <mxCell id="O_LezalZv0AIztacFEFi-76" value="&amp;lt;&amp;lt;extends&amp;gt;&amp;gt;" style="edgeLabel;html=1;align=center;verticalAlign=middle;resizable=0;points=[];" connectable="0" vertex="1" parent="O_LezalZv0AIztacFEFi-75">
          <mxGeometry x="-0.02" relative="1" as="geometry">
            <mxPoint as="offset" />
          </mxGeometry>
        </mxCell>
        <mxCell id="O_LezalZv0AIztacFEFi-77" value="" style="endArrow=open;html=1;rounded=0;entryX=1;entryY=0.5;entryDx=0;entryDy=0;dashed=1;endFill=0;" edge="1" parent="1" source="O_LezalZv0AIztacFEFi-72" target="q38-xUWY-D5EYrUV_V0L-25">
          <mxGeometry relative="1" as="geometry">
            <mxPoint x="787.5" y="332" as="sourcePoint" />
            <mxPoint x="775" y="360" as="targetPoint" />
            <Array as="points" />
          </mxGeometry>
        </mxCell>
        <mxCell id="O_LezalZv0AIztacFEFi-78" value="&amp;lt;&amp;lt;extends&amp;gt;&amp;gt;" style="edgeLabel;html=1;align=center;verticalAlign=middle;resizable=0;points=[];" connectable="0" vertex="1" parent="O_LezalZv0AIztacFEFi-77">
          <mxGeometry x="-0.02" relative="1" as="geometry">
            <mxPoint as="offset" />
          </mxGeometry>
        </mxCell>
        <mxCell id="O_LezalZv0AIztacFEFi-79" value="" style="endArrow=open;html=1;rounded=0;dashed=1;endFill=0;edgeStyle=orthogonalEdgeStyle;" edge="1" parent="1" source="O_LezalZv0AIztacFEFi-72" target="q38-xUWY-D5EYrUV_V0L-2">
          <mxGeometry relative="1" as="geometry">
            <mxPoint x="885" y="410" as="sourcePoint" />
            <mxPoint x="825" y="419" as="targetPoint" />
            <Array as="points">
              <mxPoint x="890" y="445" />
            </Array>
          </mxGeometry>
        </mxCell>
        <mxCell id="O_LezalZv0AIztacFEFi-80" value="&amp;lt;&amp;lt;extends&amp;gt;&amp;gt;" style="edgeLabel;html=1;align=center;verticalAlign=middle;resizable=0;points=[];" connectable="0" vertex="1" parent="O_LezalZv0AIztacFEFi-79">
          <mxGeometry x="-0.02" relative="1" as="geometry">
            <mxPoint y="2" as="offset" />
          </mxGeometry>
        </mxCell>
        <mxCell id="O_LezalZv0AIztacFEFi-82" value="Has an Exam" style="ellipse;whiteSpace=wrap;html=1;" vertex="1" parent="1">
          <mxGeometry x="1040" y="320" width="85" height="50" as="geometry" />
        </mxCell>
        <mxCell id="O_LezalZv0AIztacFEFi-83" value="Has a Medical Report" style="ellipse;whiteSpace=wrap;html=1;" vertex="1" parent="1">
          <mxGeometry x="1040" y="395" width="82.5" height="50" as="geometry" />
        </mxCell>
        <mxCell id="O_LezalZv0AIztacFEFi-84" value="" style="endArrow=open;html=1;rounded=0;entryX=-0.002;entryY=0.663;entryDx=0;entryDy=0;dashed=1;entryPerimeter=0;endFill=0;" edge="1" parent="1" source="O_LezalZv0AIztacFEFi-72" target="O_LezalZv0AIztacFEFi-82">
          <mxGeometry relative="1" as="geometry">
            <mxPoint x="1085.2353392904627" y="200.00081635824466" as="sourcePoint" />
            <mxPoint x="855" y="282.57" as="targetPoint" />
            <Array as="points" />
          </mxGeometry>
        </mxCell>
        <mxCell id="O_LezalZv0AIztacFEFi-85" value="&amp;lt;&amp;lt;includes&amp;gt;&amp;gt;" style="edgeLabel;html=1;align=center;verticalAlign=middle;resizable=0;points=[];" connectable="0" vertex="1" parent="O_LezalZv0AIztacFEFi-84">
          <mxGeometry x="-0.02" relative="1" as="geometry">
            <mxPoint as="offset" />
          </mxGeometry>
        </mxCell>
        <mxCell id="rOTN-rRV6AG6Dtss-v7P-4" value="" style="endArrow=none;html=1;rounded=0;exitX=0;exitY=0.5;exitDx=0;exitDy=0;entryX=0.5;entryY=0.5;entryDx=0;entryDy=0;entryPerimeter=0;" edge="1" parent="1" source="aVH8XVsafTI9C4mX_rZn-13" target="q38-xUWY-D5EYrUV_V0L-6">
          <mxGeometry width="50" height="50" relative="1" as="geometry">
            <mxPoint x="490" y="310" as="sourcePoint" />
            <mxPoint x="80" y="150" as="targetPoint" />
          </mxGeometry>
        </mxCell>
        <mxCell id="q38-xUWY-D5EYrUV_V0L-75" value="" style="endArrow=open;html=1;rounded=0;exitX=1;exitY=1;exitDx=0;exitDy=0;entryX=0;entryY=0.5;entryDx=0;entryDy=0;dashed=1;endFill=0;" edge="1" parent="1" source="O_LezalZv0AIztacFEFi-72" target="O_LezalZv0AIztacFEFi-83">
          <mxGeometry relative="1" as="geometry">
            <mxPoint x="1013" y="275" as="sourcePoint" />
            <mxPoint x="933" y="326" as="targetPoint" />
            <Array as="points" />
          </mxGeometry>
        </mxCell>
        <mxCell id="q38-xUWY-D5EYrUV_V0L-76" value="&amp;lt;&amp;lt;includes&amp;gt;&amp;gt;" style="edgeLabel;html=1;align=center;verticalAlign=middle;resizable=0;points=[];" connectable="0" vertex="1" parent="q38-xUWY-D5EYrUV_V0L-75">
          <mxGeometry x="-0.02" relative="1" as="geometry">
            <mxPoint x="12" y="3" as="offset" />
          </mxGeometry>
        </mxCell>
        <mxCell id="O_LezalZv0AIztacFEFi-90" value="User" style="shape=umlActor;verticalLabelPosition=bottom;verticalAlign=top;html=1;" vertex="1" parent="1">
          <mxGeometry x="50" y="2190" width="30" height="60" as="geometry" />
        </mxCell>
        <mxCell id="O_LezalZv0AIztacFEFi-94" value="" style="endArrow=none;html=1;rounded=0;exitX=0;exitY=0.5;exitDx=0;exitDy=0;entryX=0.5;entryY=0.5;entryDx=0;entryDy=0;entryPerimeter=0;" edge="1" parent="1" source="O_LezalZv0AIztacFEFi-95" target="O_LezalZv0AIztacFEFi-90">
          <mxGeometry width="50" height="50" relative="1" as="geometry">
            <mxPoint x="261" y="2080" as="sourcePoint" />
            <mxPoint x="70" y="2220" as="targetPoint" />
          </mxGeometry>
        </mxCell>
        <mxCell id="O_LezalZv0AIztacFEFi-95" value="Change Password" style="ellipse;whiteSpace=wrap;html=1;" vertex="1" parent="1">
          <mxGeometry x="350" y="1942.5" width="150" height="50" as="geometry" />
        </mxCell>
        <mxCell id="O_LezalZv0AIztacFEFi-97" value="View Profile" style="ellipse;whiteSpace=wrap;html=1;" vertex="1" parent="1">
          <mxGeometry x="350" y="2052.5" width="150" height="50" as="geometry" />
        </mxCell>
        <mxCell id="O_LezalZv0AIztacFEFi-98" value="Change Contact Information" style="ellipse;whiteSpace=wrap;html=1;" vertex="1" parent="1">
          <mxGeometry x="350" y="2152.5" width="150" height="50" as="geometry" />
        </mxCell>
        <mxCell id="O_LezalZv0AIztacFEFi-99" value="" style="endArrow=none;html=1;rounded=0;exitX=0;exitY=0.5;exitDx=0;exitDy=0;entryX=0.5;entryY=0.5;entryDx=0;entryDy=0;entryPerimeter=0;" edge="1" parent="1" source="O_LezalZv0AIztacFEFi-97" target="O_LezalZv0AIztacFEFi-90">
          <mxGeometry width="50" height="50" relative="1" as="geometry">
            <mxPoint x="265" y="2100" as="sourcePoint" />
            <mxPoint x="74" y="2240" as="targetPoint" />
          </mxGeometry>
        </mxCell>
        <mxCell id="O_LezalZv0AIztacFEFi-100" value="" style="endArrow=none;html=1;rounded=0;exitX=0;exitY=0.5;exitDx=0;exitDy=0;entryX=0.5;entryY=0.5;entryDx=0;entryDy=0;entryPerimeter=0;" edge="1" parent="1" source="O_LezalZv0AIztacFEFi-98" target="O_LezalZv0AIztacFEFi-90">
          <mxGeometry width="50" height="50" relative="1" as="geometry">
            <mxPoint x="255" y="2205" as="sourcePoint" />
            <mxPoint x="75" y="2230" as="targetPoint" />
          </mxGeometry>
        </mxCell>
        <mxCell id="TaOgoW5Bn9UTS_loQW5v-7" value="&amp;lt;&amp;lt;includes&amp;gt;&amp;gt;" style="html=1;verticalAlign=bottom;endArrow=open;dashed=1;endSize=8;curved=0;rounded=0;exitX=0.959;exitY=0.692;exitDx=0;exitDy=0;exitPerimeter=0;entryX=0;entryY=0.5;entryDx=0;entryDy=0;endFill=0;" edge="1" parent="1" source="O_LezalZv0AIztacFEFi-37" target="TaOgoW5Bn9UTS_loQW5v-8">
          <mxGeometry relative="1" as="geometry">
            <mxPoint x="583.5" y="1766" as="sourcePoint" />
            <mxPoint x="647.5" y="1780" as="targetPoint" />
          </mxGeometry>
        </mxCell>
        <mxCell id="q38-xUWY-D5EYrUV_V0L-80" value="" style="endArrow=block;endSize=16;endFill=0;html=1;rounded=0;exitX=0.5;exitY=0.5;exitDx=0;exitDy=0;exitPerimeter=0;edgeStyle=orthogonalEdgeStyle;entryX=0.5;entryY=0.5;entryDx=0;entryDy=0;entryPerimeter=0;" edge="1" parent="1" source="q38-xUWY-D5EYrUV_V0L-6" target="O_LezalZv0AIztacFEFi-90">
          <mxGeometry width="160" relative="1" as="geometry">
            <mxPoint x="55" y="415" as="sourcePoint" />
            <mxPoint x="55" y="2220" as="targetPoint" />
            <Array as="points">
              <mxPoint x="30" y="415" />
              <mxPoint x="30" y="2220" />
            </Array>
          </mxGeometry>
        </mxCell>
        <mxCell id="TaOgoW5Bn9UTS_loQW5v-6" value="&amp;lt;&amp;lt;includes&amp;gt;&amp;gt;" style="html=1;verticalAlign=bottom;endArrow=open;dashed=1;endSize=8;curved=0;rounded=0;exitX=0.971;exitY=0.316;exitDx=0;exitDy=0;exitPerimeter=0;entryX=0;entryY=0.5;entryDx=0;entryDy=0;endFill=0;" edge="1" parent="1" source="O_LezalZv0AIztacFEFi-37" target="TaOgoW5Bn9UTS_loQW5v-9">
          <mxGeometry x="-0.003" relative="1" as="geometry">
            <mxPoint x="677.5" y="1720" as="sourcePoint" />
            <mxPoint x="637.5" y="1720" as="targetPoint" />
            <mxPoint as="offset" />
          </mxGeometry>
        </mxCell>
        <mxCell id="9XOKiGZ0hlWDvyM98krq-16" style="edgeStyle=orthogonalEdgeStyle;rounded=0;orthogonalLoop=1;jettySize=auto;html=1;endArrow=openThin;startFill=0;dashed=1;entryX=0.336;entryY=0.949;entryDx=0;entryDy=0;entryPerimeter=0;endFill=0;" edge="1" parent="1" source="TaOgoW5Bn9UTS_loQW5v-8" target="k6JBA33vA88njy-TTC3Q-13">
          <mxGeometry relative="1" as="geometry">
            <mxPoint x="900" y="1600" as="targetPoint" />
          </mxGeometry>
        </mxCell>
        <mxCell id="TaOgoW5Bn9UTS_loQW5v-8" value="Reject" style="ellipse;whiteSpace=wrap;html=1;" vertex="1" parent="1">
          <mxGeometry x="602.5" y="1660" width="80" height="50" as="geometry" />
        </mxCell>
        <mxCell id="O_LezalZv0AIztacFEFi-105" value="" style="endArrow=none;html=1;rounded=0;exitX=0;exitY=0.5;exitDx=0;exitDy=0;entryX=0.5;entryY=0.5;entryDx=0;entryDy=0;entryPerimeter=0;" edge="1" parent="1" source="O_LezalZv0AIztacFEFi-106" target="O_LezalZv0AIztacFEFi-90">
          <mxGeometry width="50" height="50" relative="1" as="geometry">
            <mxPoint x="360" y="2220" as="sourcePoint" />
            <mxPoint x="70" y="2220" as="targetPoint" />
          </mxGeometry>
        </mxCell>
        <mxCell id="O_LezalZv0AIztacFEFi-106" value="View Notification" style="ellipse;whiteSpace=wrap;html=1;" vertex="1" parent="1">
          <mxGeometry x="335" y="2230" width="150" height="50" as="geometry" />
        </mxCell>
        <mxCell id="O_LezalZv0AIztacFEFi-107" value="" style="endArrow=none;html=1;rounded=0;entryX=0.5;entryY=0.5;entryDx=0;entryDy=0;entryPerimeter=0;exitX=0;exitY=0.5;exitDx=0;exitDy=0;" edge="1" parent="1" source="O_LezalZv0AIztacFEFi-109" target="O_LezalZv0AIztacFEFi-90">
          <mxGeometry width="50" height="50" relative="1" as="geometry">
            <mxPoint x="290" y="2370" as="sourcePoint" />
            <mxPoint x="120" y="2270" as="targetPoint" />
          </mxGeometry>
        </mxCell>
        <mxCell id="O_LezalZv0AIztacFEFi-109" value="Login" style="ellipse;whiteSpace=wrap;html=1;" vertex="1" parent="1">
          <mxGeometry x="335" y="2320" width="150" height="50" as="geometry" />
        </mxCell>
        <mxCell id="O_LezalZv0AIztacFEFi-110" value="" style="endArrow=none;html=1;rounded=0;entryX=0.5;entryY=0.5;entryDx=0;entryDy=0;entryPerimeter=0;exitX=0;exitY=0.5;exitDx=0;exitDy=0;" edge="1" parent="1" source="O_LezalZv0AIztacFEFi-111" target="O_LezalZv0AIztacFEFi-90">
          <mxGeometry width="50" height="50" relative="1" as="geometry">
            <mxPoint x="260" y="2441" as="sourcePoint" />
            <mxPoint x="50" y="2310" as="targetPoint" />
          </mxGeometry>
        </mxCell>
        <mxCell id="9XOKiGZ0hlWDvyM98krq-8" style="edgeStyle=orthogonalEdgeStyle;rounded=0;orthogonalLoop=1;jettySize=auto;html=1;exitX=0.622;exitY=0.991;exitDx=0;exitDy=0;endArrow=open;startFill=0;dashed=1;endFill=0;exitPerimeter=0;entryX=1;entryY=1;entryDx=0;entryDy=0;" edge="1" parent="1" source="O_LezalZv0AIztacFEFi-111" target="k6JBA33vA88njy-TTC3Q-13">
          <mxGeometry relative="1" as="geometry">
            <mxPoint x="951" y="1500" as="targetPoint" />
            <mxPoint x="380.05" y="2608.8399999999997" as="sourcePoint" />
            <Array as="points">
              <mxPoint x="423" y="2510" />
              <mxPoint x="590" y="2510" />
              <mxPoint x="590" y="2630" />
              <mxPoint x="973" y="2630" />
            </Array>
          </mxGeometry>
        </mxCell>
        <mxCell id="O_LezalZv0AIztacFEFi-111" value="Recover Password" style="ellipse;whiteSpace=wrap;html=1;" vertex="1" parent="1">
          <mxGeometry x="330" y="2430" width="150" height="50" as="geometry" />
        </mxCell>
        <mxCell id="O_LezalZv0AIztacFEFi-112" value="" style="endArrow=none;html=1;rounded=0;entryX=0.5;entryY=0.5;entryDx=0;entryDy=0;entryPerimeter=0;exitX=0.033;exitY=0.6;exitDx=0;exitDy=0;exitPerimeter=0;" edge="1" parent="1" source="O_LezalZv0AIztacFEFi-113" target="O_LezalZv0AIztacFEFi-90">
          <mxGeometry width="50" height="50" relative="1" as="geometry">
            <mxPoint x="280" y="2560" as="sourcePoint" />
            <mxPoint x="27" y="2290" as="targetPoint" />
          </mxGeometry>
        </mxCell>
        <mxCell id="q38-xUWY-D5EYrUV_V0L-82" value="" style="endArrow=open;html=1;rounded=0;entryX=0;entryY=0.5;entryDx=0;entryDy=0;exitX=1;exitY=1;exitDx=0;exitDy=0;dashed=1;endFill=0;" edge="1" parent="1" source="q38-xUWY-D5EYrUV_V0L-65" target="q38-xUWY-D5EYrUV_V0L-67">
          <mxGeometry relative="1" as="geometry">
            <mxPoint x="427.5" y="525" as="sourcePoint" />
            <mxPoint x="600.5" y="456" as="targetPoint" />
            <Array as="points" />
          </mxGeometry>
        </mxCell>
        <mxCell id="q38-xUWY-D5EYrUV_V0L-83" value="&amp;lt;&amp;lt;includes&amp;gt;&amp;gt;" style="edgeLabel;html=1;align=center;verticalAlign=middle;resizable=0;points=[];" connectable="0" vertex="1" parent="q38-xUWY-D5EYrUV_V0L-82">
          <mxGeometry x="-0.02" relative="1" as="geometry">
            <mxPoint as="offset" />
          </mxGeometry>
        </mxCell>
        <mxCell id="O_LezalZv0AIztacFEFi-113" value="Logout" style="ellipse;whiteSpace=wrap;html=1;" vertex="1" parent="1">
          <mxGeometry x="330" y="2550" width="150" height="50" as="geometry" />
        </mxCell>
        <mxCell id="q38-xUWY-D5EYrUV_V0L-84" value="" style="endArrow=open;html=1;rounded=0;entryX=0;entryY=0.5;entryDx=0;entryDy=0;exitX=1;exitY=0;exitDx=0;exitDy=0;dashed=1;endFill=0;" edge="1" parent="1" source="q38-xUWY-D5EYrUV_V0L-65" target="q38-xUWY-D5EYrUV_V0L-66">
          <mxGeometry relative="1" as="geometry">
            <mxPoint x="467" y="229" as="sourcePoint" />
            <mxPoint x="640" y="160" as="targetPoint" />
            <Array as="points" />
          </mxGeometry>
        </mxCell>
        <mxCell id="q38-xUWY-D5EYrUV_V0L-85" value="&amp;lt;&amp;lt;includes&amp;gt;&amp;gt;" style="edgeLabel;html=1;align=center;verticalAlign=middle;resizable=0;points=[];" connectable="0" vertex="1" parent="q38-xUWY-D5EYrUV_V0L-84">
          <mxGeometry x="-0.02" relative="1" as="geometry">
            <mxPoint as="offset" />
          </mxGeometry>
        </mxCell>
        <mxCell id="O_LezalZv0AIztacFEFi-115" value="" style="endArrow=open;html=1;rounded=0;dashed=1;endFill=0;exitX=0;exitY=0.5;exitDx=0;exitDy=0;entryX=0.978;entryY=0.404;entryDx=0;entryDy=0;entryPerimeter=0;" edge="1" parent="1" source="O_LezalZv0AIztacFEFi-117" target="O_LezalZv0AIztacFEFi-95">
          <mxGeometry relative="1" as="geometry">
            <mxPoint x="446.25" y="1969.5" as="sourcePoint" />
            <mxPoint x="498.75" y="2012.5" as="targetPoint" />
            <Array as="points" />
          </mxGeometry>
        </mxCell>
        <mxCell id="O_LezalZv0AIztacFEFi-116" value="&amp;lt;&amp;lt;extends&amp;gt;&amp;gt;" style="edgeLabel;html=1;align=center;verticalAlign=middle;resizable=0;points=[];" connectable="0" vertex="1" parent="O_LezalZv0AIztacFEFi-115">
          <mxGeometry x="-0.02" relative="1" as="geometry">
            <mxPoint as="offset" />
          </mxGeometry>
        </mxCell>
        <mxCell id="9XOKiGZ0hlWDvyM98krq-25" style="edgeStyle=orthogonalEdgeStyle;rounded=0;orthogonalLoop=1;jettySize=auto;html=1;endArrow=none;startFill=0;dashed=1;" edge="1" parent="1" source="TaOgoW5Bn9UTS_loQW5v-9">
          <mxGeometry relative="1" as="geometry">
            <mxPoint x="890" y="1605" as="targetPoint" />
            <Array as="points">
              <mxPoint x="890" y="1605" />
            </Array>
          </mxGeometry>
        </mxCell>
        <mxCell id="TaOgoW5Bn9UTS_loQW5v-9" value="Accept" style="ellipse;whiteSpace=wrap;html=1;" vertex="1" parent="1">
          <mxGeometry x="602.5" y="1580" width="80" height="50" as="geometry" />
        </mxCell>
        <mxCell id="q38-xUWY-D5EYrUV_V0L-81" value="" style="endArrow=block;endSize=16;endFill=0;html=1;rounded=0;exitX=0.5;exitY=0.5;exitDx=0;exitDy=0;exitPerimeter=0;entryX=0.5;entryY=0;entryDx=0;entryDy=0;entryPerimeter=0;" edge="1" parent="1" source="q38-xUWY-D5EYrUV_V0L-5" target="O_LezalZv0AIztacFEFi-90">
          <mxGeometry width="160" relative="1" as="geometry">
            <mxPoint x="130" y="490" as="sourcePoint" />
            <mxPoint x="50" y="635" as="targetPoint" />
            <Array as="points" />
          </mxGeometry>
        </mxCell>
        <mxCell id="O_LezalZv0AIztacFEFi-117" value="Can&#39;t Be Previous Password" style="ellipse;whiteSpace=wrap;html=1;" vertex="1" parent="1">
          <mxGeometry x="620" y="1937.5" width="110" height="55" as="geometry" />
        </mxCell>
        <mxCell id="O_LezalZv0AIztacFEFi-118" value="Bad Phone Format" style="ellipse;whiteSpace=wrap;html=1;" vertex="1" parent="1">
          <mxGeometry x="780" y="2080" width="115" height="50" as="geometry" />
        </mxCell>
        <mxCell id="O_LezalZv0AIztacFEFi-119" value="Bilkent Email Required" style="ellipse;whiteSpace=wrap;html=1;" vertex="1" parent="1">
          <mxGeometry x="780" y="2172.5" width="115" height="50" as="geometry" />
        </mxCell>
        <mxCell id="O_LezalZv0AIztacFEFi-122" value="" style="endArrow=open;html=1;rounded=0;dashed=1;endFill=0;entryX=0.932;entryY=0.773;entryDx=0;entryDy=0;exitX=0;exitY=0.5;exitDx=0;exitDy=0;entryPerimeter=0;" edge="1" parent="1" source="O_LezalZv0AIztacFEFi-119" target="O_LezalZv0AIztacFEFi-98">
          <mxGeometry relative="1" as="geometry">
            <mxPoint x="728.75" y="2102.5" as="sourcePoint" />
            <mxPoint x="401.75" y="2142.5" as="targetPoint" />
            <Array as="points" />
          </mxGeometry>
        </mxCell>
        <mxCell id="O_LezalZv0AIztacFEFi-123" value="&amp;lt;&amp;lt;extends&amp;gt;&amp;gt;" style="edgeLabel;html=1;align=center;verticalAlign=middle;resizable=0;points=[];" connectable="0" vertex="1" parent="O_LezalZv0AIztacFEFi-122">
          <mxGeometry x="-0.02" relative="1" as="geometry">
            <mxPoint as="offset" />
          </mxGeometry>
        </mxCell>
        <mxCell id="q38-xUWY-D5EYrUV_V0L-88" value="" style="endArrow=open;html=1;rounded=0;dashed=1;endFill=0;exitX=1;exitY=0.5;exitDx=0;exitDy=0;entryX=0;entryY=0.5;entryDx=0;entryDy=0;" edge="1" parent="1" source="q38-xUWY-D5EYrUV_V0L-90" target="O_LezalZv0AIztacFEFi-53">
          <mxGeometry relative="1" as="geometry">
            <mxPoint x="1210" y="560" as="sourcePoint" />
            <mxPoint x="1240" y="630" as="targetPoint" />
            <Array as="points" />
          </mxGeometry>
        </mxCell>
        <mxCell id="q38-xUWY-D5EYrUV_V0L-89" value="&amp;lt;&amp;lt;extends&amp;gt;&amp;gt;" style="edgeLabel;html=1;align=center;verticalAlign=middle;resizable=0;points=[];" connectable="0" vertex="1" parent="q38-xUWY-D5EYrUV_V0L-88">
          <mxGeometry x="-0.02" relative="1" as="geometry">
            <mxPoint as="offset" />
          </mxGeometry>
        </mxCell>
        <mxCell id="q38-xUWY-D5EYrUV_V0L-90" value="Not Available Proctor" style="ellipse;whiteSpace=wrap;html=1;" vertex="1" parent="1">
          <mxGeometry x="1055" y="545" width="94.07" height="40" as="geometry" />
        </mxCell>
        <mxCell id="TaOgoW5Bn9UTS_loQW5v-10" value="&amp;lt;&amp;lt;extends&amp;gt;&amp;gt;" style="html=1;verticalAlign=bottom;endArrow=open;dashed=1;endSize=8;curved=0;rounded=0;entryX=1;entryY=1;entryDx=0;entryDy=0;exitX=0;exitY=0;exitDx=0;exitDy=0;" edge="1" parent="1" source="TaOgoW5Bn9UTS_loQW5v-11" target="q38-xUWY-D5EYrUV_V0L-67">
          <mxGeometry x="-0.1734" y="-1" relative="1" as="geometry">
            <mxPoint x="740" y="835" as="sourcePoint" />
            <mxPoint x="820" y="770" as="targetPoint" />
            <mxPoint x="-1" as="offset" />
          </mxGeometry>
        </mxCell>
        <mxCell id="TaOgoW5Bn9UTS_loQW5v-11" value="Conflicting Schedules" style="ellipse;whiteSpace=wrap;html=1;" vertex="1" parent="1">
          <mxGeometry x="740" y="810" width="100" height="50" as="geometry" />
        </mxCell>
        <mxCell id="O_LezalZv0AIztacFEFi-142" value="Authorize" style="ellipse;whiteSpace=wrap;html=1;" vertex="1" parent="1">
          <mxGeometry x="647.5" y="2240" width="110" height="50" as="geometry" />
        </mxCell>
        <mxCell id="O_LezalZv0AIztacFEFi-143" value="" style="endArrow=open;html=1;rounded=0;exitX=0.672;exitY=0.038;exitDx=0;exitDy=0;dashed=1;endFill=0;entryX=0;entryY=0.5;entryDx=0;entryDy=0;exitPerimeter=0;edgeStyle=orthogonalEdgeStyle;" edge="1" parent="1" source="O_LezalZv0AIztacFEFi-109" target="O_LezalZv0AIztacFEFi-142">
          <mxGeometry relative="1" as="geometry">
            <mxPoint x="490" y="2384.44" as="sourcePoint" />
            <mxPoint x="864" y="2384.44" as="targetPoint" />
            <Array as="points">
              <mxPoint x="435.5" y="2300" />
              <mxPoint x="607.5" y="2300" />
              <mxPoint x="607.5" y="2265" />
            </Array>
          </mxGeometry>
        </mxCell>
        <mxCell id="O_LezalZv0AIztacFEFi-144" value="&amp;lt;&amp;lt;includes&amp;gt;&amp;gt;" style="edgeLabel;html=1;align=center;verticalAlign=middle;resizable=0;points=[];" connectable="0" vertex="1" parent="O_LezalZv0AIztacFEFi-143">
          <mxGeometry x="-0.02" relative="1" as="geometry">
            <mxPoint as="offset" />
          </mxGeometry>
        </mxCell>
        <mxCell id="O_LezalZv0AIztacFEFi-145" value="Validate E-Mail" style="ellipse;whiteSpace=wrap;html=1;" vertex="1" parent="1">
          <mxGeometry x="647.5" y="2310" width="105" height="60" as="geometry" />
        </mxCell>
        <mxCell id="O_LezalZv0AIztacFEFi-146" value="Validate Password" style="ellipse;whiteSpace=wrap;html=1;" vertex="1" parent="1">
          <mxGeometry x="647.5" y="2390" width="107.5" height="50" as="geometry" />
        </mxCell>
        <mxCell id="O_LezalZv0AIztacFEFi-147" value="User Not Found" style="ellipse;whiteSpace=wrap;html=1;" vertex="1" parent="1">
          <mxGeometry x="840" y="2315" width="110" height="50" as="geometry" />
        </mxCell>
        <mxCell id="q38-xUWY-D5EYrUV_V0L-91" value="Upload Semester Data / Excel" style="ellipse;whiteSpace=wrap;html=1;" vertex="1" parent="1">
          <mxGeometry x="305" y="1005" width="117.5" height="50" as="geometry" />
        </mxCell>
        <mxCell id="O_LezalZv0AIztacFEFi-152" value="Wrong Password" style="ellipse;whiteSpace=wrap;html=1;" vertex="1" parent="1">
          <mxGeometry x="839.9999999999999" y="2390" width="110" height="50" as="geometry" />
        </mxCell>
        <mxCell id="O_LezalZv0AIztacFEFi-153" value="" style="endArrow=open;html=1;rounded=0;dashed=1;endFill=0;exitX=0;exitY=0.5;exitDx=0;exitDy=0;entryX=1;entryY=0.5;entryDx=0;entryDy=0;" edge="1" parent="1" source="O_LezalZv0AIztacFEFi-152" target="O_LezalZv0AIztacFEFi-146">
          <mxGeometry relative="1" as="geometry">
            <mxPoint x="956.38" y="2467" as="sourcePoint" />
            <mxPoint x="504.38000000000005" y="2440" as="targetPoint" />
            <Array as="points" />
          </mxGeometry>
        </mxCell>
        <mxCell id="O_LezalZv0AIztacFEFi-154" value="&amp;lt;&amp;lt;extends&amp;gt;&amp;gt;" style="edgeLabel;html=1;align=center;verticalAlign=middle;resizable=0;points=[];" connectable="0" vertex="1" parent="O_LezalZv0AIztacFEFi-153">
          <mxGeometry x="-0.02" relative="1" as="geometry">
            <mxPoint as="offset" />
          </mxGeometry>
        </mxCell>
        <mxCell id="O_LezalZv0AIztacFEFi-155" value="" style="endArrow=open;html=1;rounded=0;dashed=1;endFill=0;exitX=0;exitY=0.5;exitDx=0;exitDy=0;entryX=1;entryY=0.5;entryDx=0;entryDy=0;" edge="1" parent="1" source="O_LezalZv0AIztacFEFi-147" target="O_LezalZv0AIztacFEFi-145">
          <mxGeometry relative="1" as="geometry">
            <mxPoint x="989.88" y="2357" as="sourcePoint" />
            <mxPoint x="537.88" y="2330" as="targetPoint" />
            <Array as="points" />
          </mxGeometry>
        </mxCell>
        <mxCell id="O_LezalZv0AIztacFEFi-156" value="&amp;lt;&amp;lt;extends&amp;gt;&amp;gt;" style="edgeLabel;html=1;align=center;verticalAlign=middle;resizable=0;points=[];" connectable="0" vertex="1" parent="O_LezalZv0AIztacFEFi-155">
          <mxGeometry x="-0.02" relative="1" as="geometry">
            <mxPoint as="offset" />
          </mxGeometry>
        </mxCell>
        <mxCell id="O_LezalZv0AIztacFEFi-159" value="Validate Password" style="ellipse;whiteSpace=wrap;html=1;" vertex="1" parent="1">
          <mxGeometry x="648.75" y="2470" width="107.5" height="50" as="geometry" />
        </mxCell>
        <mxCell id="O_LezalZv0AIztacFEFi-160" value="" style="endArrow=open;html=1;rounded=0;exitX=1;exitY=1;exitDx=0;exitDy=0;dashed=1;endFill=0;entryX=0;entryY=0.5;entryDx=0;entryDy=0;edgeStyle=orthogonalEdgeStyle;" edge="1" parent="1" source="O_LezalZv0AIztacFEFi-111" target="O_LezalZv0AIztacFEFi-159">
          <mxGeometry relative="1" as="geometry">
            <mxPoint x="405.5" y="2660" as="sourcePoint" />
            <mxPoint x="767.5" y="2660" as="targetPoint" />
          </mxGeometry>
        </mxCell>
        <mxCell id="O_LezalZv0AIztacFEFi-161" value="&amp;lt;&amp;lt;includes&amp;gt;&amp;gt;" style="edgeLabel;html=1;align=center;verticalAlign=middle;resizable=0;points=[];" connectable="0" vertex="1" parent="O_LezalZv0AIztacFEFi-160">
          <mxGeometry x="-0.02" relative="1" as="geometry">
            <mxPoint y="15" as="offset" />
          </mxGeometry>
        </mxCell>
        <mxCell id="O_LezalZv0AIztacFEFi-162" value="Generate Log Reports" style="ellipse;whiteSpace=wrap;html=1;" vertex="1" parent="1">
          <mxGeometry x="1340" y="1020" width="135" height="60" as="geometry" />
        </mxCell>
        <mxCell id="O_LezalZv0AIztacFEFi-163" value="" style="endArrow=none;html=1;rounded=0;exitX=0.5;exitY=0.5;exitDx=0;exitDy=0;exitPerimeter=0;entryX=1;entryY=0.5;entryDx=0;entryDy=0;" edge="1" parent="1" source="O_LezalZv0AIztacFEFi-28" target="O_LezalZv0AIztacFEFi-162">
          <mxGeometry width="50" height="50" relative="1" as="geometry">
            <mxPoint x="1680" y="1010" as="sourcePoint" />
            <mxPoint x="1480" y="1060" as="targetPoint" />
          </mxGeometry>
        </mxCell>
        <mxCell id="9XOKiGZ0hlWDvyM98krq-13" style="edgeStyle=orthogonalEdgeStyle;rounded=0;orthogonalLoop=1;jettySize=auto;html=1;endArrow=none;startFill=0;dashed=1;" edge="1" parent="1" source="TaOgoW5Bn9UTS_loQW5v-14">
          <mxGeometry relative="1" as="geometry">
            <mxPoint x="940" y="740" as="targetPoint" />
          </mxGeometry>
        </mxCell>
        <mxCell id="TaOgoW5Bn9UTS_loQW5v-14" value="Make Report Requests" style="ellipse;whiteSpace=wrap;html=1;" vertex="1" parent="1">
          <mxGeometry x="1252.5" y="710" width="135" height="60" as="geometry" />
        </mxCell>
        <mxCell id="TaOgoW5Bn9UTS_loQW5v-15" value="&amp;lt;&amp;lt;includes&amp;gt;&amp;gt;" style="html=1;verticalAlign=bottom;endArrow=open;dashed=1;endSize=8;curved=0;rounded=0;exitX=0;exitY=0.5;exitDx=0;exitDy=0;entryX=0.437;entryY=0.031;entryDx=0;entryDy=0;entryPerimeter=0;" edge="1" parent="1" source="TaOgoW5Bn9UTS_loQW5v-14" target="TaOgoW5Bn9UTS_loQW5v-13">
          <mxGeometry x="0.8192" relative="1" as="geometry">
            <mxPoint x="1450" y="770" as="sourcePoint" />
            <mxPoint x="1370" y="770" as="targetPoint" />
            <Array as="points">
              <mxPoint x="1160" y="740" />
            </Array>
            <mxPoint as="offset" />
          </mxGeometry>
        </mxCell>
        <mxCell id="TaOgoW5Bn9UTS_loQW5v-17" value="" style="endArrow=none;html=1;rounded=0;entryX=0.569;entryY=0.019;entryDx=0;entryDy=0;entryPerimeter=0;exitX=0.5;exitY=0.5;exitDx=0;exitDy=0;exitPerimeter=0;" edge="1" parent="1" source="q38-xUWY-D5EYrUV_V0L-4" target="TaOgoW5Bn9UTS_loQW5v-14">
          <mxGeometry width="50" height="50" relative="1" as="geometry">
            <mxPoint x="1620" y="480" as="sourcePoint" />
            <mxPoint x="1395" y="390" as="targetPoint" />
          </mxGeometry>
        </mxCell>
        <mxCell id="TaOgoW5Bn9UTS_loQW5v-18" value="&amp;lt;&amp;lt;includes&amp;gt;&amp;gt;" style="html=1;verticalAlign=bottom;endArrow=open;dashed=1;endSize=8;curved=0;rounded=0;exitX=0.054;exitY=0.289;exitDx=0;exitDy=0;exitPerimeter=0;entryX=1;entryY=0.5;entryDx=0;entryDy=0;" edge="1" parent="1" source="TaOgoW5Bn9UTS_loQW5v-13" target="TaOgoW5Bn9UTS_loQW5v-20">
          <mxGeometry x="-0.0969" y="5" relative="1" as="geometry">
            <mxPoint x="1285" y="810" as="sourcePoint" />
            <mxPoint x="1105" y="720" as="targetPoint" />
            <mxPoint as="offset" />
          </mxGeometry>
        </mxCell>
        <mxCell id="O_LezalZv0AIztacFEFi-174" value="Login Reports" style="ellipse;whiteSpace=wrap;html=1;" vertex="1" parent="1">
          <mxGeometry x="1070" y="950" width="90" height="40" as="geometry" />
        </mxCell>
        <mxCell id="O_LezalZv0AIztacFEFi-175" value="Swap Reports" style="ellipse;whiteSpace=wrap;html=1;" vertex="1" parent="1">
          <mxGeometry x="1070" y="1010" width="90" height="40" as="geometry" />
        </mxCell>
        <mxCell id="O_LezalZv0AIztacFEFi-176" value="Duty Reports" style="ellipse;whiteSpace=wrap;html=1;" vertex="1" parent="1">
          <mxGeometry x="1070" y="1070" width="90" height="40" as="geometry" />
        </mxCell>
        <mxCell id="O_LezalZv0AIztacFEFi-177" value="Proctor Reports" style="ellipse;whiteSpace=wrap;html=1;" vertex="1" parent="1">
          <mxGeometry x="1070" y="1125" width="90" height="40" as="geometry" />
        </mxCell>
        <mxCell id="TaOgoW5Bn9UTS_loQW5v-19" value="&amp;lt;&amp;lt;includes&amp;gt;&amp;gt;" style="html=1;verticalAlign=bottom;endArrow=open;dashed=1;endSize=8;curved=0;rounded=0;exitX=0.047;exitY=0.717;exitDx=0;exitDy=0;exitPerimeter=0;entryX=1;entryY=0.5;entryDx=0;entryDy=0;" edge="1" parent="1" source="TaOgoW5Bn9UTS_loQW5v-13" target="TaOgoW5Bn9UTS_loQW5v-21">
          <mxGeometry x="-0.0097" y="9" relative="1" as="geometry">
            <mxPoint x="1202" y="777" as="sourcePoint" />
            <mxPoint x="1105" y="810" as="targetPoint" />
            <mxPoint as="offset" />
          </mxGeometry>
        </mxCell>
        <mxCell id="TaOgoW5Bn9UTS_loQW5v-20" value="Accept" style="ellipse;whiteSpace=wrap;html=1;" vertex="1" parent="1">
          <mxGeometry x="955" y="770" width="85" height="40" as="geometry" />
        </mxCell>
        <mxCell id="TaOgoW5Bn9UTS_loQW5v-21" value="Reject" style="ellipse;whiteSpace=wrap;html=1;" vertex="1" parent="1">
          <mxGeometry x="955" y="840" width="85" height="40" as="geometry" />
        </mxCell>
        <mxCell id="O_LezalZv0AIztacFEFi-179" value="" style="endArrow=open;html=1;rounded=0;exitX=0.272;exitY=1.015;exitDx=0;exitDy=0;dashed=1;endFill=0;entryX=1.022;entryY=0.298;entryDx=0;entryDy=0;exitPerimeter=0;entryPerimeter=0;" edge="1" parent="1" source="O_LezalZv0AIztacFEFi-162" target="O_LezalZv0AIztacFEFi-177">
          <mxGeometry relative="1" as="geometry">
            <mxPoint x="1330" y="1086" as="sourcePoint" />
            <mxPoint x="1190" y="1125" as="targetPoint" />
            <Array as="points" />
          </mxGeometry>
        </mxCell>
        <mxCell id="O_LezalZv0AIztacFEFi-180" value="&amp;lt;&amp;lt;includes&amp;gt;&amp;gt;" style="edgeLabel;html=1;align=center;verticalAlign=middle;resizable=0;points=[];" connectable="0" vertex="1" parent="O_LezalZv0AIztacFEFi-179">
          <mxGeometry x="-0.02" relative="1" as="geometry">
            <mxPoint as="offset" />
          </mxGeometry>
        </mxCell>
        <mxCell id="TaOgoW5Bn9UTS_loQW5v-23" value="" style="endArrow=none;html=1;rounded=0;exitX=0.5;exitY=0.5;exitDx=0;exitDy=0;exitPerimeter=0;entryX=1;entryY=0.5;entryDx=0;entryDy=0;" edge="1" parent="1" source="O_LezalZv0AIztacFEFi-28" target="O_LezalZv0AIztacFEFi-162">
          <mxGeometry width="50" height="50" relative="1" as="geometry">
            <mxPoint x="1625" y="900" as="sourcePoint" />
            <mxPoint x="1423" y="921" as="targetPoint" />
          </mxGeometry>
        </mxCell>
        <mxCell id="TaOgoW5Bn9UTS_loQW5v-27" value="" style="endArrow=open;html=1;rounded=0;exitX=0;exitY=0;exitDx=0;exitDy=0;dashed=1;endFill=0;entryX=1;entryY=0.5;entryDx=0;entryDy=0;" edge="1" parent="1" source="O_LezalZv0AIztacFEFi-162" target="O_LezalZv0AIztacFEFi-174">
          <mxGeometry relative="1" as="geometry">
            <mxPoint x="1290" y="1025" as="sourcePoint" />
            <mxPoint x="1170" y="1040" as="targetPoint" />
            <Array as="points" />
          </mxGeometry>
        </mxCell>
        <mxCell id="TaOgoW5Bn9UTS_loQW5v-28" value="&amp;lt;&amp;lt;includes&amp;gt;&amp;gt;" style="edgeLabel;html=1;align=center;verticalAlign=middle;resizable=0;points=[];" connectable="0" vertex="1" parent="TaOgoW5Bn9UTS_loQW5v-27">
          <mxGeometry x="-0.02" relative="1" as="geometry">
            <mxPoint as="offset" />
          </mxGeometry>
        </mxCell>
        <mxCell id="TaOgoW5Bn9UTS_loQW5v-22" value="" style="endArrow=none;html=1;rounded=0;exitX=0.5;exitY=0.5;exitDx=0;exitDy=0;exitPerimeter=0;entryX=0.973;entryY=0.667;entryDx=0;entryDy=0;entryPerimeter=0;" edge="1" parent="1" source="O_LezalZv0AIztacFEFi-28" target="TaOgoW5Bn9UTS_loQW5v-13">
          <mxGeometry width="50" height="50" relative="1" as="geometry">
            <mxPoint x="1625" y="900" as="sourcePoint" />
            <mxPoint x="1425" y="1140" as="targetPoint" />
          </mxGeometry>
        </mxCell>
        <mxCell id="TaOgoW5Bn9UTS_loQW5v-29" value="" style="endArrow=open;html=1;rounded=0;exitX=0.047;exitY=0.769;exitDx=0;exitDy=0;dashed=1;endFill=0;entryX=1;entryY=0.5;entryDx=0;entryDy=0;exitPerimeter=0;" edge="1" parent="1" source="O_LezalZv0AIztacFEFi-162" target="O_LezalZv0AIztacFEFi-176">
          <mxGeometry relative="1" as="geometry">
            <mxPoint x="1290" y="1025" as="sourcePoint" />
            <mxPoint x="1170" y="1040" as="targetPoint" />
            <Array as="points" />
          </mxGeometry>
        </mxCell>
        <mxCell id="TaOgoW5Bn9UTS_loQW5v-30" value="&amp;lt;&amp;lt;includes&amp;gt;&amp;gt;" style="edgeLabel;html=1;align=center;verticalAlign=middle;resizable=0;points=[];" connectable="0" vertex="1" parent="TaOgoW5Bn9UTS_loQW5v-29">
          <mxGeometry x="-0.02" relative="1" as="geometry">
            <mxPoint as="offset" />
          </mxGeometry>
        </mxCell>
        <mxCell id="TaOgoW5Bn9UTS_loQW5v-32" value="" style="endArrow=open;html=1;rounded=0;exitX=0;exitY=1;exitDx=0;exitDy=0;dashed=1;endFill=0;entryX=0.977;entryY=0.282;entryDx=0;entryDy=0;entryPerimeter=0;" edge="1" parent="1" source="TaOgoW5Bn9UTS_loQW5v-14" target="O_LezalZv0AIztacFEFi-174">
          <mxGeometry relative="1" as="geometry">
            <mxPoint x="1309" y="1004" as="sourcePoint" />
            <mxPoint x="1170" y="980" as="targetPoint" />
            <Array as="points" />
          </mxGeometry>
        </mxCell>
        <mxCell id="TaOgoW5Bn9UTS_loQW5v-34" value="" style="endArrow=open;html=1;rounded=0;exitX=1;exitY=1;exitDx=0;exitDy=0;dashed=1;endFill=0;entryX=1;entryY=0;entryDx=0;entryDy=0;" edge="1" parent="1" source="TaOgoW5Bn9UTS_loQW5v-14" target="O_LezalZv0AIztacFEFi-177">
          <mxGeometry relative="1" as="geometry">
            <mxPoint x="1563" y="850" as="sourcePoint" />
            <mxPoint x="1168" y="971" as="targetPoint" />
            <Array as="points" />
          </mxGeometry>
        </mxCell>
        <mxCell id="TaOgoW5Bn9UTS_loQW5v-35" value="&amp;lt;&amp;lt;includes&amp;gt;&amp;gt;" style="edgeLabel;html=1;align=center;verticalAlign=middle;resizable=0;points=[];" connectable="0" vertex="1" parent="TaOgoW5Bn9UTS_loQW5v-34">
          <mxGeometry x="-0.02" relative="1" as="geometry">
            <mxPoint as="offset" />
          </mxGeometry>
        </mxCell>
        <mxCell id="TaOgoW5Bn9UTS_loQW5v-36" value="" style="endArrow=open;html=1;rounded=0;exitX=0.63;exitY=1;exitDx=0;exitDy=0;dashed=1;endFill=0;exitPerimeter=0;entryX=1;entryY=0;entryDx=0;entryDy=0;" edge="1" parent="1" source="TaOgoW5Bn9UTS_loQW5v-14" target="O_LezalZv0AIztacFEFi-176">
          <mxGeometry relative="1" as="geometry">
            <mxPoint x="1596" y="851" as="sourcePoint" />
            <mxPoint x="1157" y="1141" as="targetPoint" />
            <Array as="points" />
          </mxGeometry>
        </mxCell>
        <mxCell id="TaOgoW5Bn9UTS_loQW5v-37" value="&amp;lt;&amp;lt;includes&amp;gt;&amp;gt;" style="edgeLabel;html=1;align=center;verticalAlign=middle;resizable=0;points=[];" connectable="0" vertex="1" parent="TaOgoW5Bn9UTS_loQW5v-36">
          <mxGeometry x="-0.02" relative="1" as="geometry">
            <mxPoint as="offset" />
          </mxGeometry>
        </mxCell>
        <mxCell id="TaOgoW5Bn9UTS_loQW5v-38" value="" style="endArrow=open;html=1;rounded=0;exitX=0.279;exitY=1.002;exitDx=0;exitDy=0;dashed=1;endFill=0;exitPerimeter=0;entryX=1;entryY=0;entryDx=0;entryDy=0;" edge="1" parent="1" source="TaOgoW5Bn9UTS_loQW5v-14" target="O_LezalZv0AIztacFEFi-175">
          <mxGeometry relative="1" as="geometry">
            <mxPoint x="1580" y="850" as="sourcePoint" />
            <mxPoint x="1157" y="1086" as="targetPoint" />
            <Array as="points" />
          </mxGeometry>
        </mxCell>
        <mxCell id="TaOgoW5Bn9UTS_loQW5v-39" value="&amp;lt;&amp;lt;includes&amp;gt;&amp;gt;" style="edgeLabel;html=1;align=center;verticalAlign=middle;resizable=0;points=[];" connectable="0" vertex="1" parent="TaOgoW5Bn9UTS_loQW5v-38">
          <mxGeometry x="-0.02" relative="1" as="geometry">
            <mxPoint as="offset" />
          </mxGeometry>
        </mxCell>
        <mxCell id="TaOgoW5Bn9UTS_loQW5v-40" value="" style="endArrow=open;html=1;rounded=0;dashed=1;endFill=0;entryX=0.925;entryY=0.2;entryDx=0;entryDy=0;exitX=0;exitY=0.5;exitDx=0;exitDy=0;entryPerimeter=0;" edge="1" parent="1" source="O_LezalZv0AIztacFEFi-118" target="O_LezalZv0AIztacFEFi-98">
          <mxGeometry relative="1" as="geometry">
            <mxPoint x="883.75" y="2197.5" as="sourcePoint" />
            <mxPoint x="509.75" y="2187.5" as="targetPoint" />
            <Array as="points" />
          </mxGeometry>
        </mxCell>
        <mxCell id="TaOgoW5Bn9UTS_loQW5v-41" value="&amp;lt;&amp;lt;extends&amp;gt;&amp;gt;" style="edgeLabel;html=1;align=center;verticalAlign=middle;resizable=0;points=[];" connectable="0" vertex="1" parent="TaOgoW5Bn9UTS_loQW5v-40">
          <mxGeometry x="-0.02" relative="1" as="geometry">
            <mxPoint as="offset" />
          </mxGeometry>
        </mxCell>
        <mxCell id="O_LezalZv0AIztacFEFi-166" value="" style="endArrow=open;html=1;rounded=0;exitX=0.015;exitY=0.66;exitDx=0;exitDy=0;dashed=1;endFill=0;exitPerimeter=0;entryX=1;entryY=0.5;entryDx=0;entryDy=0;" edge="1" parent="1" source="O_LezalZv0AIztacFEFi-162" target="O_LezalZv0AIztacFEFi-175">
          <mxGeometry relative="1" as="geometry">
            <mxPoint x="1209" y="1070" as="sourcePoint" />
            <mxPoint x="1180" y="1040" as="targetPoint" />
            <Array as="points" />
          </mxGeometry>
        </mxCell>
        <mxCell id="O_LezalZv0AIztacFEFi-167" value="&amp;lt;&amp;lt;includes&amp;gt;&amp;gt;" style="edgeLabel;html=1;align=center;verticalAlign=middle;resizable=0;points=[];" connectable="0" vertex="1" parent="O_LezalZv0AIztacFEFi-166">
          <mxGeometry x="-0.02" relative="1" as="geometry">
            <mxPoint as="offset" />
          </mxGeometry>
        </mxCell>
        <mxCell id="O_LezalZv0AIztacFEFi-181" value="" style="endArrow=none;html=1;rounded=0;exitX=0;exitY=0.5;exitDx=0;exitDy=0;entryX=0.5;entryY=0.5;entryDx=0;entryDy=0;entryPerimeter=0;" edge="1" parent="1" source="q38-xUWY-D5EYrUV_V0L-91" target="q38-xUWY-D5EYrUV_V0L-5">
          <mxGeometry width="50" height="50" relative="1" as="geometry">
            <mxPoint x="327.5" y="1295" as="sourcePoint" />
            <mxPoint x="90" y="1010" as="targetPoint" />
          </mxGeometry>
        </mxCell>
        <mxCell id="TaOgoW5Bn9UTS_loQW5v-42" value="" style="endArrow=open;html=1;rounded=0;exitX=0.959;exitY=0.346;exitDx=0;exitDy=0;dashed=1;endFill=0;exitPerimeter=0;" edge="1" parent="1" source="O_LezalZv0AIztacFEFi-109">
          <mxGeometry relative="1" as="geometry">
            <mxPoint x="495.5" y="2355" as="sourcePoint" />
            <mxPoint x="647.5" y="2340" as="targetPoint" />
            <Array as="points" />
          </mxGeometry>
        </mxCell>
        <mxCell id="TaOgoW5Bn9UTS_loQW5v-43" value="&amp;lt;&amp;lt;includes&amp;gt;&amp;gt;" style="edgeLabel;html=1;align=center;verticalAlign=middle;resizable=0;points=[];" connectable="0" vertex="1" parent="TaOgoW5Bn9UTS_loQW5v-42">
          <mxGeometry x="-0.02" relative="1" as="geometry">
            <mxPoint as="offset" />
          </mxGeometry>
        </mxCell>
        <mxCell id="TaOgoW5Bn9UTS_loQW5v-13" value="Review Report Requests" style="ellipse;whiteSpace=wrap;html=1;" vertex="1" parent="1">
          <mxGeometry x="1110" y="800" width="115" height="60" as="geometry" />
        </mxCell>
        <mxCell id="TaOgoW5Bn9UTS_loQW5v-46" value="" style="endArrow=open;html=1;rounded=0;dashed=1;endFill=0;exitX=1;exitY=1;exitDx=0;exitDy=0;edgeStyle=orthogonalEdgeStyle;entryX=0;entryY=0;entryDx=0;entryDy=0;" edge="1" parent="1" source="O_LezalZv0AIztacFEFi-109" target="O_LezalZv0AIztacFEFi-146">
          <mxGeometry relative="1" as="geometry">
            <mxPoint x="473.5" y="2373" as="sourcePoint" />
            <mxPoint x="663.5" y="2397" as="targetPoint" />
            <Array as="points">
              <mxPoint x="463.5" y="2380" />
              <mxPoint x="637.5" y="2380" />
              <mxPoint x="637.5" y="2397" />
            </Array>
          </mxGeometry>
        </mxCell>
        <mxCell id="TaOgoW5Bn9UTS_loQW5v-47" value="&amp;lt;&amp;lt;includes&amp;gt;&amp;gt;" style="edgeLabel;html=1;align=center;verticalAlign=middle;resizable=0;points=[];" connectable="0" vertex="1" parent="TaOgoW5Bn9UTS_loQW5v-46">
          <mxGeometry x="-0.02" relative="1" as="geometry">
            <mxPoint as="offset" />
          </mxGeometry>
        </mxCell>
        <mxCell id="awzGUUwn8bpGuSvGH3D5-2" style="edgeStyle=orthogonalEdgeStyle;rounded=0;orthogonalLoop=1;jettySize=auto;html=1;exitX=0.5;exitY=0.5;exitDx=0;exitDy=0;exitPerimeter=0;endArrow=none;startFill=0;" edge="1" parent="1" source="q38-xUWY-D5EYrUV_V0L-95">
          <mxGeometry relative="1" as="geometry">
            <mxPoint x="-60" y="1409.6842105263158" as="targetPoint" />
            <Array as="points">
              <mxPoint x="115" y="1390" />
              <mxPoint x="-60" y="1390" />
            </Array>
          </mxGeometry>
        </mxCell>
        <mxCell id="q38-xUWY-D5EYrUV_V0L-95" value="Instructor&lt;div&gt;&lt;br&gt;&lt;/div&gt;" style="shape=umlActor;verticalLabelPosition=bottom;verticalAlign=top;html=1;outlineConnect=0;" vertex="1" parent="1">
          <mxGeometry x="100" y="1380" width="30" height="60" as="geometry" />
        </mxCell>
        <mxCell id="q38-xUWY-D5EYrUV_V0L-102" value="&lt;div&gt;Coordiantor&lt;/div&gt;" style="shape=umlActor;verticalLabelPosition=bottom;verticalAlign=top;html=1;outlineConnect=0;" vertex="1" parent="1">
          <mxGeometry x="100" y="1590" width="30" height="60" as="geometry" />
        </mxCell>
        <mxCell id="O_LezalZv0AIztacFEFi-186" value="" style="endArrow=open;html=1;rounded=0;entryX=0;entryY=0.5;entryDx=0;entryDy=0;dashed=1;endFill=0;" edge="1" parent="1" source="k6JBA33vA88njy-TTC3Q-6" target="O_LezalZv0AIztacFEFi-182">
          <mxGeometry relative="1" as="geometry">
            <mxPoint x="497.5" y="1065" as="sourcePoint" />
            <mxPoint x="592.5" y="1050" as="targetPoint" />
            <Array as="points" />
          </mxGeometry>
        </mxCell>
        <mxCell id="O_LezalZv0AIztacFEFi-187" value="&amp;lt;&amp;lt;includes&amp;gt;&amp;gt;" style="edgeLabel;html=1;align=center;verticalAlign=middle;resizable=0;points=[];" connectable="0" vertex="1" parent="O_LezalZv0AIztacFEFi-186">
          <mxGeometry x="-0.02" relative="1" as="geometry">
            <mxPoint as="offset" />
          </mxGeometry>
        </mxCell>
        <mxCell id="O_LezalZv0AIztacFEFi-182" value="Alphabetically" style="ellipse;whiteSpace=wrap;html=1;" vertex="1" parent="1">
          <mxGeometry x="578.75" y="965" width="111.25" height="40" as="geometry" />
        </mxCell>
        <mxCell id="q38-xUWY-D5EYrUV_V0L-104" value="" style="endArrow=block;endSize=16;endFill=0;html=1;rounded=0;exitX=0.25;exitY=0.1;exitDx=0;exitDy=0;exitPerimeter=0;edgeStyle=orthogonalEdgeStyle;entryX=0.5;entryY=0.5;entryDx=0;entryDy=0;entryPerimeter=0;" edge="1" parent="1" source="q38-xUWY-D5EYrUV_V0L-102" target="q38-xUWY-D5EYrUV_V0L-5">
          <mxGeometry width="160" relative="1" as="geometry">
            <mxPoint x="260" y="1720" as="sourcePoint" />
            <mxPoint y="930" as="targetPoint" />
            <Array as="points">
              <mxPoint x="-60" y="1596" />
              <mxPoint x="-60" y="950" />
            </Array>
          </mxGeometry>
        </mxCell>
        <mxCell id="O_LezalZv0AIztacFEFi-188" value="" style="endArrow=open;html=1;rounded=0;exitX=1;exitY=0.421;exitDx=0;exitDy=0;dashed=1;endFill=0;exitPerimeter=0;entryX=0;entryY=0.5;entryDx=0;entryDy=0;" edge="1" parent="1" source="k6JBA33vA88njy-TTC3Q-3" target="k6JBA33vA88njy-TTC3Q-23">
          <mxGeometry relative="1" as="geometry">
            <mxPoint x="539.5" y="861.5" as="sourcePoint" />
            <mxPoint x="612.5" y="850" as="targetPoint" />
            <Array as="points" />
          </mxGeometry>
        </mxCell>
        <mxCell id="O_LezalZv0AIztacFEFi-189" value="&amp;lt;&amp;lt;includes&amp;gt;&amp;gt;" style="edgeLabel;html=1;align=center;verticalAlign=middle;resizable=0;points=[];" connectable="0" vertex="1" parent="O_LezalZv0AIztacFEFi-188">
          <mxGeometry x="-0.02" relative="1" as="geometry">
            <mxPoint as="offset" />
          </mxGeometry>
        </mxCell>
        <mxCell id="q38-xUWY-D5EYrUV_V0L-105" value="Defines Exam" style="ellipse;whiteSpace=wrap;html=1;" vertex="1" parent="1">
          <mxGeometry x="370" y="1385" width="145" height="50" as="geometry" />
        </mxCell>
        <mxCell id="O_LezalZv0AIztacFEFi-190" value="" style="endArrow=open;html=1;rounded=0;exitX=0.974;exitY=0.739;exitDx=0;exitDy=0;dashed=1;endFill=0;exitPerimeter=0;entryX=0;entryY=0.5;entryDx=0;entryDy=0;" edge="1" parent="1" source="k6JBA33vA88njy-TTC3Q-3" target="k6JBA33vA88njy-TTC3Q-24">
          <mxGeometry relative="1" as="geometry">
            <mxPoint x="493.5" y="973" as="sourcePoint" />
            <mxPoint x="597.5" y="940" as="targetPoint" />
            <Array as="points" />
          </mxGeometry>
        </mxCell>
        <mxCell id="O_LezalZv0AIztacFEFi-191" value="&amp;lt;&amp;lt;includes&amp;gt;&amp;gt;" style="edgeLabel;html=1;align=center;verticalAlign=middle;resizable=0;points=[];" connectable="0" vertex="1" parent="O_LezalZv0AIztacFEFi-190">
          <mxGeometry x="-0.02" relative="1" as="geometry">
            <mxPoint as="offset" />
          </mxGeometry>
        </mxCell>
        <mxCell id="q38-xUWY-D5EYrUV_V0L-106" value="" style="endArrow=none;html=1;rounded=0;exitX=0;exitY=0.5;exitDx=0;exitDy=0;entryX=0.5;entryY=0.5;entryDx=0;entryDy=0;entryPerimeter=0;" edge="1" parent="1" source="q38-xUWY-D5EYrUV_V0L-105" target="q38-xUWY-D5EYrUV_V0L-95">
          <mxGeometry width="50" height="50" relative="1" as="geometry">
            <mxPoint x="525" y="1355" as="sourcePoint" />
            <mxPoint x="270" y="1380" as="targetPoint" />
          </mxGeometry>
        </mxCell>
        <mxCell id="q38-xUWY-D5EYrUV_V0L-107" value="Profile can not be found" style="ellipse;whiteSpace=wrap;html=1;" vertex="1" parent="1">
          <mxGeometry x="625" y="2020" width="105" height="50" as="geometry" />
        </mxCell>
        <mxCell id="q38-xUWY-D5EYrUV_V0L-108" value="" style="endArrow=open;html=1;rounded=0;dashed=1;endFill=0;exitX=0;exitY=0.5;exitDx=0;exitDy=0;entryX=1;entryY=0.5;entryDx=0;entryDy=0;" edge="1" parent="1" source="q38-xUWY-D5EYrUV_V0L-107" target="O_LezalZv0AIztacFEFi-97">
          <mxGeometry relative="1" as="geometry">
            <mxPoint x="861.25" y="2062.5" as="sourcePoint" />
            <mxPoint x="490.25" y="2062.5" as="targetPoint" />
            <Array as="points" />
          </mxGeometry>
        </mxCell>
        <mxCell id="q38-xUWY-D5EYrUV_V0L-109" value="&amp;lt;&amp;lt;extends&amp;gt;&amp;gt;" style="edgeLabel;html=1;align=center;verticalAlign=middle;resizable=0;points=[];" connectable="0" vertex="1" parent="q38-xUWY-D5EYrUV_V0L-108">
          <mxGeometry x="-0.02" relative="1" as="geometry">
            <mxPoint as="offset" />
          </mxGeometry>
        </mxCell>
        <mxCell id="O_LezalZv0AIztacFEFi-194" value="Generate Classroom List" style="ellipse;whiteSpace=wrap;html=1;" vertex="1" parent="1">
          <mxGeometry x="312.5" y="1075" width="107.5" height="50" as="geometry" />
        </mxCell>
        <mxCell id="O_LezalZv0AIztacFEFi-195" value="" style="endArrow=none;html=1;rounded=0;exitX=0;exitY=0.5;exitDx=0;exitDy=0;entryX=0.5;entryY=0.5;entryDx=0;entryDy=0;entryPerimeter=0;" edge="1" parent="1" source="O_LezalZv0AIztacFEFi-194" target="q38-xUWY-D5EYrUV_V0L-5">
          <mxGeometry width="50" height="50" relative="1" as="geometry">
            <mxPoint x="248" y="1262.5" as="sourcePoint" />
            <mxPoint x="60" y="950" as="targetPoint" />
          </mxGeometry>
        </mxCell>
        <mxCell id="O_LezalZv0AIztacFEFi-198" value="" style="endArrow=none;html=1;rounded=0;exitX=0;exitY=0.5;exitDx=0;exitDy=0;entryX=0.5;entryY=0.5;entryDx=0;entryDy=0;entryPerimeter=0;" edge="1" parent="1" source="k6JBA33vA88njy-TTC3Q-32" target="q38-xUWY-D5EYrUV_V0L-102">
          <mxGeometry width="50" height="50" relative="1" as="geometry">
            <mxPoint x="424" y="1590" as="sourcePoint" />
            <mxPoint x="256" y="1590" as="targetPoint" />
          </mxGeometry>
        </mxCell>
        <mxCell id="O_LezalZv0AIztacFEFi-199" value="" style="endArrow=none;html=1;rounded=0;exitX=0;exitY=0.5;exitDx=0;exitDy=0;entryX=0.5;entryY=0.5;entryDx=0;entryDy=0;entryPerimeter=0;" edge="1" parent="1" source="O_LezalZv0AIztacFEFi-37" target="q38-xUWY-D5EYrUV_V0L-102">
          <mxGeometry width="50" height="50" relative="1" as="geometry">
            <mxPoint x="390" y="1565" as="sourcePoint" />
            <mxPoint x="270" y="1623" as="targetPoint" />
          </mxGeometry>
        </mxCell>
        <mxCell id="UQc-vg5HXmAlZ1WJ9ItE-12" value="&amp;lt;&amp;lt;includes&amp;gt;&amp;gt;.&amp;nbsp; &amp;nbsp;&amp;lt;&amp;lt;includes&amp;gt;&amp;gt;" style="edgeLabel;html=1;align=center;verticalAlign=middle;resizable=0;points=[];" connectable="0" vertex="1" parent="1">
          <mxGeometry x="634.3730751063262" y="899.9982905401955" as="geometry">
            <mxPoint x="271" y="33" as="offset" />
          </mxGeometry>
        </mxCell>
        <mxCell id="07HJ_ihqrSKo2GpWPXQf-1" value="" style="endArrow=none;dashed=1;html=1;rounded=0;entryX=0.5;entryY=1;entryDx=0;entryDy=0;edgeStyle=orthogonalEdgeStyle;" edge="1" parent="1" target="q38-xUWY-D5EYrUV_V0L-25">
          <mxGeometry width="50" height="50" relative="1" as="geometry">
            <mxPoint x="940" y="440" as="sourcePoint" />
            <mxPoint x="870" y="380" as="targetPoint" />
            <Array as="points">
              <mxPoint x="940" y="420" />
              <mxPoint x="715" y="420" />
            </Array>
          </mxGeometry>
        </mxCell>
        <mxCell id="9XOKiGZ0hlWDvyM98krq-2" value="&amp;lt;&amp;lt;includes&amp;gt;&amp;gt;" style="edgeLabel;html=1;align=center;verticalAlign=middle;resizable=0;points=[];" connectable="0" vertex="1" parent="1">
          <mxGeometry x="619.9995957992539" y="559.9972484752861" as="geometry">
            <mxPoint x="85" y="-22" as="offset" />
          </mxGeometry>
        </mxCell>
        <mxCell id="9XOKiGZ0hlWDvyM98krq-7" value="&amp;lt;&amp;lt;includes&amp;gt;&amp;gt;" style="edgeLabel;html=1;align=center;verticalAlign=middle;resizable=0;points=[];" connectable="0" vertex="1" parent="1">
          <mxGeometry x="699.9995957992539" y="559.9972484752861" as="geometry" />
        </mxCell>
        <mxCell id="TIfY0MOYR1zeC03F4nCG-2" value="&amp;lt;&amp;lt;extends&amp;gt;&amp;gt;" style="html=1;verticalAlign=bottom;endArrow=open;dashed=1;endSize=8;curved=0;rounded=0;entryX=0;entryY=0.5;entryDx=0;entryDy=0;exitX=1;exitY=0.5;exitDx=0;exitDy=0;" edge="1" parent="1" source="TIfY0MOYR1zeC03F4nCG-3" target="q38-xUWY-D5EYrUV_V0L-3">
          <mxGeometry x="-0.1798" y="-1" relative="1" as="geometry">
            <mxPoint x="1017.25" y="492" as="sourcePoint" />
            <mxPoint x="971.25" y="385" as="targetPoint" />
            <mxPoint x="1" as="offset" />
          </mxGeometry>
        </mxCell>
        <mxCell id="TIfY0MOYR1zeC03F4nCG-3" value="Conflicting Schedules" style="ellipse;whiteSpace=wrap;html=1;" vertex="1" parent="1">
          <mxGeometry x="1062.03" y="455" width="97.97" height="40" as="geometry" />
        </mxCell>
        <mxCell id="9XOKiGZ0hlWDvyM98krq-10" value="&amp;lt;&amp;lt;includes&amp;gt;&amp;gt;" style="edgeLabel;html=1;align=center;verticalAlign=middle;resizable=0;points=[];" connectable="0" vertex="1" parent="1">
          <mxGeometry x="967.4962034506425" y="2259.995572143499" as="geometry" />
        </mxCell>
        <mxCell id="9XOKiGZ0hlWDvyM98krq-12" value="&amp;lt;&amp;lt;includes&amp;gt;&amp;gt;" style="edgeLabel;html=1;align=center;verticalAlign=middle;resizable=0;points=[];" connectable="0" vertex="1" parent="1">
          <mxGeometry x="1179.99652555239" y="1210.0026387191726" as="geometry">
            <mxPoint x="-10" y="1" as="offset" />
          </mxGeometry>
        </mxCell>
        <mxCell id="vhoYcOlkWWazncAzvVU2-3" value="Didn&#39;t Take That Course" style="ellipse;whiteSpace=wrap;html=1;" vertex="1" parent="1">
          <mxGeometry x="1032.25" y="240" width="85" height="50" as="geometry" />
        </mxCell>
        <mxCell id="vhoYcOlkWWazncAzvVU2-4" value="" style="endArrow=open;html=1;rounded=0;entryX=1;entryY=0.5;entryDx=0;entryDy=0;dashed=1;endFill=0;exitX=0;exitY=0.5;exitDx=0;exitDy=0;" edge="1" parent="1" source="vhoYcOlkWWazncAzvVU2-3" target="q38-xUWY-D5EYrUV_V0L-24">
          <mxGeometry relative="1" as="geometry">
            <mxPoint x="889" y="385" as="sourcePoint" />
            <mxPoint x="753" y="303" as="targetPoint" />
            <Array as="points">
              <mxPoint x="980" y="265" />
              <mxPoint x="980" y="300" />
              <mxPoint x="980" y="330" />
            </Array>
          </mxGeometry>
        </mxCell>
        <mxCell id="vhoYcOlkWWazncAzvVU2-5" value="&amp;lt;&amp;lt;extends&amp;gt;&amp;gt;" style="edgeLabel;html=1;align=center;verticalAlign=middle;resizable=0;points=[];" connectable="0" vertex="1" parent="vhoYcOlkWWazncAzvVU2-4">
          <mxGeometry x="-0.02" relative="1" as="geometry">
            <mxPoint x="50" y="-40" as="offset" />
          </mxGeometry>
        </mxCell>
        <mxCell id="9XOKiGZ0hlWDvyM98krq-26" value="&lt;span style=&quot;color: rgb(0, 0, 0); font-family: Helvetica; font-size: 11px; font-style: normal; font-variant-ligatures: normal; font-variant-caps: normal; font-weight: 400; letter-spacing: normal; orphans: 2; text-align: center; text-indent: 0px; text-transform: none; widows: 2; word-spacing: 0px; -webkit-text-stroke-width: 0px; white-space: nowrap; background-color: rgb(255, 255, 255); text-decoration-thickness: initial; text-decoration-style: initial; text-decoration-color: initial; display: inline !important; float: none;&quot;&gt;&amp;lt;&amp;lt;includes&amp;gt;&amp;gt;&lt;/span&gt;" style="text;whiteSpace=wrap;html=1;" vertex="1" parent="1">
          <mxGeometry x="865" y="1520" width="65" height="20" as="geometry" />
        </mxCell>
        <mxCell id="9XOKiGZ0hlWDvyM98krq-27" value="" style="edgeStyle=orthogonalEdgeStyle;rounded=0;orthogonalLoop=1;jettySize=auto;html=1;dashed=1;endArrow=none;startFill=0;" edge="1" parent="1" source="q38-xUWY-D5EYrUV_V0L-25" target="O_LezalZv0AIztacFEFi-72">
          <mxGeometry relative="1" as="geometry">
            <mxPoint x="940" y="470" as="targetPoint" />
            <mxPoint x="755" y="390" as="sourcePoint" />
          </mxGeometry>
        </mxCell>
        <mxCell id="TIfY0MOYR1zeC03F4nCG-4" value="" style="endArrow=none;html=1;rounded=0;exitX=0.5;exitY=0.5;exitDx=0;exitDy=0;exitPerimeter=0;" edge="1" parent="1" source="O_LezalZv0AIztacFEFi-28">
          <mxGeometry width="50" height="50" relative="1" as="geometry">
            <mxPoint x="1740" y="830" as="sourcePoint" />
            <mxPoint x="1730" y="890" as="targetPoint" />
          </mxGeometry>
        </mxCell>
        <mxCell id="awzGUUwn8bpGuSvGH3D5-6" value="" style="endArrow=open;html=1;rounded=0;exitX=1;exitY=0;exitDx=0;exitDy=0;dashed=1;endFill=0;entryX=0;entryY=0.5;entryDx=0;entryDy=0;edgeStyle=orthogonalEdgeStyle;" edge="1" parent="1" source="O_LezalZv0AIztacFEFi-111" target="O_LezalZv0AIztacFEFi-146">
          <mxGeometry relative="1" as="geometry">
            <mxPoint x="485" y="2437" as="sourcePoint" />
            <mxPoint x="654" y="2440" as="targetPoint" />
          </mxGeometry>
        </mxCell>
        <mxCell id="awzGUUwn8bpGuSvGH3D5-7" value="&amp;lt;&amp;lt;includes&amp;gt;&amp;gt;" style="edgeLabel;html=1;align=center;verticalAlign=middle;resizable=0;points=[];" connectable="0" vertex="1" parent="awzGUUwn8bpGuSvGH3D5-6">
          <mxGeometry x="-0.02" relative="1" as="geometry">
            <mxPoint as="offset" />
          </mxGeometry>
        </mxCell>
        <mxCell id="TIfY0MOYR1zeC03F4nCG-5" value="&amp;lt;&amp;lt;includes&amp;gt;&amp;gt;" style="edgeLabel;html=1;align=center;verticalAlign=middle;resizable=0;points=[];" connectable="0" vertex="1" parent="1">
          <mxGeometry x="1274.2399020910038" y="900.7159748069696" as="geometry">
            <mxPoint x="-2" y="-51" as="offset" />
          </mxGeometry>
        </mxCell>
        <mxCell id="UQc-vg5HXmAlZ1WJ9ItE-16" style="edgeStyle=orthogonalEdgeStyle;rounded=0;orthogonalLoop=1;jettySize=auto;html=1;dashed=1;endArrow=none;startFill=0;exitX=0.5;exitY=1;exitDx=0;exitDy=0;" edge="1" parent="1" source="q38-xUWY-D5EYrUV_V0L-2">
          <mxGeometry relative="1" as="geometry">
            <mxPoint x="940" y="520" as="targetPoint" />
            <Array as="points">
              <mxPoint x="718" y="470" />
              <mxPoint x="940" y="470" />
            </Array>
          </mxGeometry>
        </mxCell>
        <mxCell id="O_LezalZv0AIztacFEFi-72" value="Has an Excuse" style="ellipse;whiteSpace=wrap;html=1;" vertex="1" parent="1">
          <mxGeometry x="850" y="370" width="80" height="40" as="geometry" />
        </mxCell>
      </root>
    </mxGraphModel>
  </diagram>
</mxfile>
